<?xml version="1.0" encoding="utf-8"?>
<!-- Generator: Adobe Illustrator 16.0.0, SVG Export Plug-In . SVG Version: 6.00 Build 0)  -->
<!DOCTYPE svg PUBLIC "-//W3C//DTD SVG 1.1//EN" "http://www.w3.org/Graphics/SVG/1.1/DTD/svg11.dtd">
<svg version="1.1" id="Layer_1" xmlns="http://www.w3.org/2000/svg" xmlns:xlink="http://www.w3.org/1999/xlink" x="0px" y="0px"
	 width="457px" height="100.667px" viewBox="6.5 5.833 457 100.667" enable-background="new 6.5 5.833 457 100.667"
	 xml:space="preserve">
<g id="XMLID_2_">
	<circle id="XMLID_3_" fill="#FFD13F" cx="60.34" cy="56.787" r="46.835"/>
	<g id="XMLID_4_">
		<g id="XMLID_2606_">
			<path id="XMLID_6_" fill="#C3002F" d="M60.34,104.296c-26.17,0-47.51-21.34-47.51-47.51c0-26.169,21.34-47.509,47.51-47.509
				s47.51,21.34,47.51,47.509C107.85,82.956,86.51,104.296,60.34,104.296z M60.34,10.725c-25.493,0-46.159,20.665-46.159,46.061
				c0,25.399,20.666,46.159,46.159,46.159c25.396,0,46.159-20.665,46.159-46.159C106.499,31.293,85.737,10.725,60.34,10.725z"/>
		</g>
		<path id="XMLID_5_" fill="#C3002F" d="M100.126,56.786c0-22.017-17.865-39.881-39.882-39.881
			C38.324,17,20.459,34.865,20.459,56.786c0,22.017,17.865,39.881,39.881,39.881C82.261,96.667,100.126,78.803,100.126,56.786z
			 M90.662,79.961L90.662,79.961c-0.29-1.449-2.124-2.605-2.897-3.089c-1.351-0.772-2.221-1.642-2.317-2.51
			c-0.097-0.387,0.096-0.773,0.192-0.966l0.097-0.096c0.387,0.289,1.449,1.062,3.959,2.799c1.062,0.772,1.642,1.545,1.642,2.318
			C91.242,78.996,90.952,79.578,90.662,79.961z M75.984,78.224c-0.097,0.482-0.58,0.772-0.676,0.869l-3.091,1.834
			c-0.192,0.098-0.675,0.29-1.158,0.193c-0.386-0.095-0.676-0.385-0.869-0.963l-0.483-1.064l0.097-0.097
			c0.193-0.291,0.386-0.484,0.58-0.484c0.193,0,0.29-0.192,0.29-0.289c0-0.192-0.097-0.291-0.29-0.291
			c-0.193,0-0.387-0.289-0.58-0.481c-0.29-0.387-0.771-0.869-1.448-0.869V75.52c2.415-0.387,3.862-0.966,4.925-1.931l0,0
			l2.414,3.477C75.984,77.452,76.081,77.838,75.984,78.224z M76.274,79.479c0.096,0,0.192,0,0.289,0
			c0.29,0.098,0.482,0.291,0.676,0.481c0.096,0.292,0.193,0.58,0.096,0.774c-0.096,0.29-0.29,0.482-0.483,0.676l-0.194,0.096l0,0
			l-3.185,1.835c-0.483,0.291-1.16,0.098-1.449-0.385c-0.097-0.291-0.192-0.581-0.097-0.771c0.097-0.292,0.289-0.485,0.483-0.678
			l0.193-0.096l0,0l3.09-1.833l0,0l0.193-0.098C75.888,79.479,76.081,79.479,76.274,79.479z M69.225,78.611
			c-0.29,0.385-0.579,0.675-0.966,0.675H52.711c-0.386,0-0.676-0.29-0.966-0.675c-0.096-0.099-0.289-0.291-0.386-0.387
			c0.097-0.097,0.291-0.291,0.386-0.386c0.29-0.386,0.58-0.675,0.966-0.675h15.451c0.386,0,0.676,0.289,0.965,0.675
			c0.097,0.095,0.291,0.289,0.386,0.386C69.514,78.32,69.321,78.512,69.225,78.611z M53.194,87.88
			c1.063-0.677,1.738-1.834,2.125-3.478c0.482,1.064,1.642,1.837,2.704,2.414c0.772,0.484,1.545,0.966,1.835,1.452h-7.726
			C52.519,88.269,52.808,88.073,53.194,87.88z M50.201,87.977c0.677-0.289,1.545-0.868,1.834-1.931
			c0.097-0.192,0.097-0.385,0.193-0.579c0.194-0.484,0.291-1.064,0.676-1.643c0.483-0.869,1.352-1.64,1.835-1.932v1.16
			c-0.097,2.221-0.772,3.669-1.932,4.44C52.035,87.88,51.07,87.977,50.201,87.977z M58.313,86.335
			c-1.255-0.771-2.606-1.545-2.606-2.8v-2.125h4.345v4.153c0,0.097,0.097,0.29,0.289,0.29c0.194,0,0.29-0.098,0.29-0.29v-4.153h4.25
			c0,0.289,0,0.869,0,2.125c0,1.255-1.353,2.029-2.607,2.8c-0.773,0.482-1.546,0.966-2.028,1.545
			C59.858,87.301,59.085,86.817,58.313,86.335z M62.659,86.914c1.061-0.674,2.317-1.447,2.702-2.607
			c0.291,1.642,0.967,2.802,2.125,3.573c0.29,0.193,0.676,0.389,1.063,0.483h-7.726C61.112,87.88,61.886,87.398,62.659,86.914z
			 M67.775,87.301c-1.158-0.773-1.834-2.318-1.931-4.441v-1.161c0.579,0.193,1.449,1.161,1.931,2.029
			c0.387,0.579,0.483,1.159,0.676,1.642c0.097,0.194,0.097,0.386,0.194,0.579c0.387,1.062,1.158,1.641,1.834,1.931
			C69.707,87.977,68.646,87.88,67.775,87.301z M60.437,80.735l-0.097-0.097c0,0-0.097,0-0.097,0.097h-7.146v-0.774H67.68v0.774
			H60.437z M54.16,81.411h0.193c-0.676,0.482-1.352,1.255-1.834,2.029c-0.387,0.579-0.581,1.157-0.677,1.737
			c-0.096,0.193-0.096,0.387-0.192,0.579c-0.386,1.061-1.159,1.545-1.835,1.737c0.289-0.579,0.386-1.447,0.482-2.22
			c0.097-0.483,0.097-0.871,0.194-1.159C51.457,81.604,53.967,81.411,54.16,81.411z M71.928,89.038c0.483,0,0.869,0.386,0.869,0.87
			c0,0.484-0.386,0.869-0.869,0.869H48.752c-0.483,0-0.869-0.384-0.869-0.869c0-0.484,0.386-0.87,0.869-0.87H71.928z M69.127,85.854
			c-0.095-0.193-0.095-0.386-0.192-0.58c-0.193-0.579-0.387-1.159-0.676-1.738c-0.483-0.773-1.158-1.643-1.835-2.029h0.097
			c0.193,0,2.801,0.193,3.669,2.703c0.097,0.291,0.097,0.678,0.193,1.161c0.097,0.773,0.193,1.544,0.483,2.22
			C70.19,87.203,69.514,86.722,69.127,85.854z M50.587,77.933c-0.193,0-0.29,0.193-0.29,0.291c0,0.193,0.096,0.289,0.29,0.289
			c0.193,0,0.29,0.193,0.483,0.291l-0.58,1.256c-0.193,0.482-0.483,0.773-0.869,0.966c-0.483,0.192-0.966-0.098-1.159-0.193
			l-2.993-1.739l-0.097-0.097c-0.193-0.097-0.579-0.385-0.676-0.87c-0.097-0.384,0-0.771,0.387-1.255l2.413-3.572
			c1.063,0.868,2.607,1.543,4.926,1.93v1.256c-0.484,0.097-0.869,0.482-1.158,0.87C51.07,77.645,50.877,77.838,50.587,77.933z
			 M48.656,83.053c-0.29,0.482-0.966,0.675-1.448,0.387l-3.187-1.835l0,0l-0.194-0.098c-0.289-0.096-0.385-0.386-0.482-0.675
			c-0.098-0.291,0-0.579,0.097-0.773c0.192-0.387,0.579-0.579,0.965-0.579c0.193,0,0.386,0,0.58,0.098l3.09,1.833l0.096,0.096l0,0
			l0.193,0.098C48.752,81.893,48.945,82.473,48.656,83.053z M33.688,69.92c-0.097-0.29-0.192-0.581-0.097-0.774
			c0.097-0.29,0.29-0.482,0.482-0.675c0.193-0.096,0.387-0.096,0.484-0.096s0.193,0,0.29,0c0.29,0.096,0.483,0.289,0.676,0.481
			l1.932,3.38c0.097,0.29,0.193,0.579,0.097,0.772c-0.097,0.291-0.29,0.484-0.483,0.676c-0.482,0.29-1.158,0.098-1.449-0.385
			L33.688,69.92z M34.558,72.815l-3.669,2.608c-0.097,0.096-0.193,0.096-0.29,0.193c-0.097,0-0.097,0.096-0.193,0.096l-0.097,0.096
			c-1.062,0.774-2.511,0.29-3.089,0.097c0.097-0.578,0.483-2.027,1.642-2.606l4.731-2.221L34.558,72.815z M36.2,68.664
			c-0.097-0.193-0.29-0.676-0.193-1.159c0.096-0.387,0.386-0.676,0.965-0.87l6.856-3.283c0.097,0.194,0.194,0.386,0.291,0.579
			c0.482,1.353,0.773,2.704,0.966,3.961c0.096,0.289,0.096,0.483,0.096,0.772l-5.118,3.475c-0.482,0.29-0.869,0.485-1.255,0.387
			c-0.482-0.097-0.772-0.579-0.868-0.676L36.2,68.664z M44.697,63.738c-0.772-2.22-2.028-2.994-3.09-3.668
			c-0.772-0.483-1.352-0.87-1.545-1.738c0.194,0.193,0.966,1.063,2.801,1.545c2.222,0.579,3.09,1.642,3.67,4.152
			c0.193,0.774,0.29,1.545,0.385,2.414c0.482,3.283,0.966,6.954,5.311,8.112c-5.407-0.869-5.89-3.379-6.566-6.953
			C45.47,66.539,45.179,65.188,44.697,63.738z M39.965,59.586L39.965,59.586l-4.828,0.387c-0.579,0-0.966-0.097-1.256-0.289
			c-0.385-0.29-0.385-0.87-0.385-1.063v-3.574c0-0.192,0-0.771,0.385-1.062c0.193-0.194,0.58-0.29,0.966-0.29
			c0.096,0,0.193,0,0.29,0l16.802,1.255l0,0l1.836,0.096l0,0h0.289v3.478c-0.482-0.291-0.965-0.58-0.965-0.87
			c0-0.193-0.193-0.29-0.29-0.29c-0.193,0-0.289,0.096-0.289,0.29c-0.097,0.386-0.677,0.772-1.352,1.16
			c-0.097,0-0.097,0.095-0.193,0.095c-0.194-0.191-0.58-0.385-0.773-0.579c-0.289-0.193-0.675-0.483-0.772-0.676
			c0-0.193-0.193-0.29-0.29-0.29c-0.193,0-0.29,0.096-0.29,0.29s-0.386,0.386-0.772,0.676c-0.291,0.193-0.677,0.387-0.869,0.676
			c-0.966-0.483-2.221-0.773-3.67-0.869c-1.834-0.098-2.896-0.387-3.573-0.966c-0.097-0.096-0.193-0.096-0.386,0
			c-0.097,0.097-0.194,0.193-0.194,0.29C39.192,58.428,39.579,59.104,39.965,59.586z M33.688,43.75l1.931-3.379
			c0.097-0.29,0.387-0.387,0.676-0.483c0.097,0,0.194,0,0.291,0c0.192,0,0.386,0,0.482,0.097c0.29,0.097,0.387,0.387,0.483,0.676
			c0.096,0.29,0,0.579-0.097,0.773l-1.932,3.38c-0.289,0.483-0.965,0.675-1.449,0.386C33.591,44.909,33.399,44.233,33.688,43.75z
			 M29.536,40.66c-0.096,0-0.192-0.096-0.29-0.096c-0.097,0-0.097-0.096-0.192-0.096l-0.193-0.097
			c-1.256-0.579-1.545-2.028-1.642-2.607c0.579-0.194,2.027-0.676,3.089,0.096l4.25,2.994l-0.966,1.738L29.536,40.66z M36.2,45.005
			l1.834-3.09c0.097-0.193,0.386-0.58,0.869-0.676c0.097,0,0.097,0,0.193,0c0.289,0,0.676,0.097,0.965,0.387l13.906,9.464
			l0.193,0.385l0,0c0,0,0,0.096,0,0.194c0,0.193,0.097,0.289,0.289,0.289c0.097,0,0.194,0.194,0.291,0.289
			c0.193,0.292,0.483,0.581,0.966,0.581h0.289l0,0v0.096c0,0.193-0.386,0.385-0.772,0.579c-0.387,0.289-0.869,0.58-1.16,0.965
			l-1.931-0.191l-15.161-7.34c-0.482-0.192-0.771-0.483-0.965-0.869C35.91,45.584,36.103,45.102,36.2,45.005z M82.454,28.106
			c0.579,0,1.062,0.483,1.062,1.062v0.966H37.068v-0.869c0-0.58,0.483-1.062,1.063-1.062h44.324V28.106z M57.636,27.527
			c0.193-0.194,0.483-0.291,0.676-0.291h3.959c0.29,0,0.483,0.097,0.676,0.291H57.636z M83.516,30.713v1.642H37.068v-1.642H83.516z
			 M83.516,33.127v0.87c0,0.579-0.483,1.062-1.062,1.062H38.13c-0.579,0-1.063-0.483-1.063-1.062v-0.87H83.516z M68.742,42.979
			c0,2.317-0.58,4.055-1.738,5.021c-0.676,0.579-1.546,0.868-2.222,0.868c0.097,0,0.097-0.096,0.194-0.096
			c1.352-0.966,2.028-3.38,2.028-7.049c0-0.676,0.193-3.766,3.958-4.925c-0.096,0.097-0.192,0.097-0.192,0.193
			C68.838,38.536,68.742,41.915,68.742,42.979z M86.896,43.75c0.096,0.29,0.193,0.58,0.096,0.773
			c-0.096,0.29-0.29,0.483-0.482,0.676c-0.291,0.097-0.58,0.192-0.773,0.097c-0.289-0.097-0.483-0.29-0.675-0.483l-0.097-0.193l0,0
			l-0.869-1.545l-0.966-1.739c-0.097-0.29-0.193-0.579-0.097-0.772c0.097-0.29,0.29-0.483,0.483-0.675
			c0.193-0.097,0.386-0.097,0.58-0.097c0.386,0,0.773,0.192,0.966,0.579L86.896,43.75z M86.027,40.854l3.669-2.607
			c0.097-0.097,0.193-0.097,0.29-0.194c0.096,0,0.096-0.097,0.192-0.097l0.097-0.096c1.063-0.772,2.51-0.29,3.09-0.096
			c-0.097,0.58-0.483,2.028-1.643,2.607l-4.731,2.221L86.027,40.854z M84.192,44.522l0.29,0.483c0.096,0.193,0.29,0.675,0.193,1.159
			c-0.097,0.386-0.386,0.675-0.965,0.869l-15.258,7.244l-1.834,0.096l0,0c-0.193-0.387-0.676-0.677-1.16-0.966
			c-0.289-0.194-0.578-0.387-0.675-0.483V52.73h0.386c0.483,0,0.773-0.386,0.966-0.578c0.097-0.098,0.193-0.29,0.29-0.29
			c0.193,0,0.29-0.193,0.29-0.291c0-0.192-0.097-0.29-0.29-0.29l0.097-0.192l13.906-9.464c0.482-0.29,0.868-0.483,1.255-0.387
			c0.483,0.097,0.772,0.58,0.869,0.676L84.192,44.522z M85.448,53.696c0.579-0.097,0.966,0.096,1.255,0.29
			c0.386,0.291,0.386,0.87,0.386,1.062v3.574c0,0.193,0,0.773-0.386,1.063c-0.29,0.289-0.676,0.385-1.255,0.289l-4.731-0.387
			c0.482-0.483,0.771-1.159,0.771-2.125c0-0.096-0.096-0.29-0.193-0.29c-0.097-0.096-0.289,0-0.386,0
			c-0.772,0.579-1.834,0.869-3.573,0.966c-1.448,0.096-2.607,0.386-3.573,0.869c-0.289-0.289-0.579-0.483-0.87-0.58
			c-0.29-0.193-0.676-0.483-0.772-0.676c0-0.192-0.193-0.29-0.289-0.29c-0.194,0-0.29,0.098-0.29,0.29
			c0,0.193-0.387,0.387-0.772,0.676c-0.29,0.194-0.58,0.387-0.87,0.676c-0.096-0.096-0.193-0.096-0.29-0.193
			c-0.578-0.385-1.255-0.771-1.352-1.159c0-0.192-0.193-0.29-0.29-0.29c-0.193,0-0.289,0.098-0.289,0.29
			c-0.097,0.29-0.386,0.58-0.87,0.87v-3.574l5.022-0.386l0,0L85.448,53.696z M55.706,61.034c-0.387,0.484-0.677,1.065-0.677,1.644
			v11.395c-1.835-1.063-2.125-4.057-2.125-5.312v-7.436c0-0.097-0.097-0.291-0.29-0.291s-0.29,0.097-0.29,0.291v7.436
			c0,1.16,0.193,3.574,1.449,5.022c-0.87-0.581-1.546-1.354-1.933-2.802c-0.192-0.772-0.385-1.835-0.482-2.896
			c-0.289-2.223-0.579-4.733-1.834-6.663v-0.195c0-0.772,0.869-1.351,1.739-1.833c0.481-0.292,1.062-0.676,1.351-1.063
			c0.29,0.29,0.676,0.483,1.063,0.772C54.643,59.685,55.512,60.263,55.706,61.034z M66.328,36.507
			c-0.193,0.097-0.29,0.193-0.483,0.387c-0.193-0.193-0.484-0.29-0.676-0.387c-0.289-0.192-0.675-0.385-0.772-0.579v-0.097h3.862
			C67.583,35.832,66.907,36.025,66.328,36.507z M71.059,36.218c-2.317,0.676-4.539,2.414-4.539,5.504
			c0,4.346-0.966,5.988-1.738,6.663c-0.386,0.291-0.772,0.386-1.063,0.386c0.097-0.869,0.387-2.896,0.87-7.726
			c0.192-1.833,0.868-3.186,2.124-3.958C67.969,36.218,69.707,36.122,71.059,36.218z M64.879,36.99
			c0.192,0.097,0.385,0.193,0.481,0.29c-0.579,0.579-0.964,1.352-1.254,2.317c0-0.193-0.097-0.29-0.097-0.385
			c-0.193-0.676-0.772-1.256-1.448-1.643c0.193-0.193,0.482-0.386,0.772-0.579c0.29-0.193,0.483-0.29,0.773-0.483
			C64.3,36.604,64.59,36.797,64.879,36.99z M63.817,35.735c0,0.193-0.387,0.386-0.773,0.579c-0.289,0.192-0.676,0.386-0.966,0.676
			c0,0,0,0-0.096,0c-0.676-0.483-1.256-0.869-1.352-1.352v-0.097h3.187C63.817,35.735,63.817,35.735,63.817,35.735z M61.692,37.569
			c0.772,0.483,1.545,1.063,1.738,1.738c0.29,0.773,0.29,3.381,0,5.892l-0.482,3.668h-2.414V38.632c0-0.096-0.097-0.289-0.291-0.289
			c-0.192,0-0.289,0.097-0.289,0.289v10.333h-2.222l-0.483-3.669c-0.289-2.607-0.193-5.215,0-5.891
			c0.194-0.772,0.966-1.255,1.738-1.738c0.483-0.386,0.966-0.676,1.255-1.063C60.726,36.894,61.21,37.28,61.692,37.569z
			 M60.051,35.735c-0.097,0.482-0.677,0.868-1.353,1.352c0,0,0,0-0.097,0c-0.29-0.291-0.579-0.484-0.966-0.676
			c-0.289-0.193-0.675-0.386-0.772-0.58c0-0.096,0-0.096-0.096-0.096H60.051L60.051,35.735z M57.347,36.99
			c0.289,0.193,0.482,0.29,0.676,0.483c-0.579,0.482-1.159,0.966-1.449,1.739c0,0.095-0.097,0.192-0.097,0.385
			c-0.29-0.868-0.675-1.642-1.158-2.221c0.193-0.096,0.29-0.193,0.482-0.289c0.29-0.194,0.483-0.291,0.772-0.484
			C56.864,36.7,57.153,36.797,57.347,36.99z M56.381,35.832c0,0.194-0.386,0.386-0.771,0.58c-0.193,0.096-0.484,0.289-0.677,0.386
			c-0.193-0.097-0.29-0.29-0.483-0.386c-0.579-0.386-1.255-0.676-2.027-0.772h3.958C56.381,35.735,56.381,35.735,56.381,35.832z
			 M54.063,36.99c1.256,0.773,1.932,2.125,2.125,3.959c0.483,4.829,0.773,6.856,0.87,7.726c-0.193,0-0.676,0-1.255-0.387
			c-0.772-0.579-1.737-2.317-1.737-6.663c0-3.09-2.223-4.829-4.539-5.504C50.974,36.025,52.711,36.122,54.063,36.99z M56.768,49.641
			L56.768,49.641h0.772l0,0h5.698l0,0h0.772c0.097,0,0.097,0,0.193,0l0,0v0.675h-7.435V49.641z M65.168,50.896
			c0.192,0,0.289,0.096,0.483,0.386c0.097,0.097,0.097,0.097,0.193,0.193c-0.097,0.096-0.097,0.096-0.193,0.194
			c-0.194,0.193-0.291,0.385-0.483,0.385h-9.367c-0.192,0-0.29-0.096-0.482-0.385c-0.097-0.098-0.097-0.098-0.194-0.194
			c0.097-0.096,0.097-0.096,0.194-0.193c0.193-0.192,0.29-0.386,0.482-0.386H65.168z M67.969,58.525
			c0.29,0.385,0.773,0.675,1.353,0.964c0.772,0.581,1.738,1.063,1.738,1.934v0.191c-1.159,1.932-1.545,4.442-1.834,6.567
			c-0.097,1.062-0.29,2.028-0.482,2.897c-0.387,1.641-1.256,2.51-2.222,2.994c1.448-1.449,1.642-4.057,1.642-5.216v-7.434
			c0-0.098-0.096-0.292-0.29-0.292c-0.192,0-0.289,0.096-0.289,0.292v7.434c0,1.255-0.193,4.346-2.125,5.312
			c0-2.608,0-9.463,0-11.395c0-0.58-0.193-1.062-0.578-1.546c0.097-0.675,0.965-1.158,1.738-1.641
			C67.197,59.2,67.68,58.91,67.969,58.525z M70.48,59.489c0.193-0.192,0.386-0.29,0.676-0.481c0.29-0.193,0.483-0.289,0.677-0.483
			c0.192,0.194,0.481,0.385,0.675,0.483c0.193,0.096,0.386,0.29,0.58,0.387c-0.58,0.384-1.159,0.868-1.545,1.349
			C71.349,60.263,70.962,59.876,70.48,59.489z M66.134,59.104c-0.58,0.386-1.158,0.773-1.544,1.352v-5.504
			c0-0.096-0.097-0.29-0.29-0.29c-0.194,0-0.291,0.096-0.291,0.29v5.504c-0.386-0.29-0.869-0.579-1.351-0.869v-4.442
			c0-0.387,0.482-0.676,0.965-0.965c0.29-0.193,0.483-0.29,0.773-0.483c0.193,0.193,0.483,0.387,0.772,0.483
			c0.483,0.289,0.966,0.579,0.966,0.965V59.104z M60.244,60.938c-0.096,0-0.289,0.097-0.289,0.29V74.94h-3.187
			c-0.098,0-0.194-0.098-0.291-0.098c-0.192-0.094-0.482-0.094-0.771-0.192V62.773c0-1.255,1.351-2.029,2.606-2.8
			c0.772-0.484,1.545-0.966,2.028-1.546c0.386,0.58,1.159,1.062,2.028,1.546c1.255,0.771,2.608,1.544,2.608,2.8
			c0,2.221,0,9.85,0,11.976c-0.194,0.094-0.386,0.094-0.676,0.191c-0.097,0-0.194,0.097-0.291,0.097h-3.573v-13.81
			C60.437,61.034,60.34,60.938,60.244,60.938z M61.112,53.986c0.483,0.291,0.966,0.58,0.966,0.966v4.056
			c-0.772-0.483-1.448-0.967-1.544-1.546c0-0.096-0.097-0.192-0.097-0.192v-0.097v-2.317c0-0.098-0.097-0.29-0.289-0.29
			c-0.193,0-0.29,0.096-0.29,0.29v2.317c0,0.097,0,0.097,0,0.097c-0.097,0-0.097,0.096-0.097,0.192
			c-0.097,0.483-0.58,0.87-1.255,1.353v-3.863c0-0.386,0.482-0.675,0.965-0.966c0.29-0.194,0.483-0.29,0.772-0.483
			C60.63,53.696,60.823,53.89,61.112,53.986z M60.726,52.73h3.477l0,0v0.098c0,0.192-0.386,0.385-0.773,0.579
			c-0.29,0.192-0.675,0.385-0.965,0.676c-0.29-0.291-0.676-0.484-0.966-0.676c-0.289-0.194-0.676-0.387-0.773-0.579V52.73z
			 M60.051,52.828c0,0.192-0.387,0.385-0.773,0.579c-0.29,0.192-0.676,0.385-0.965,0.676c-0.29-0.291-0.676-0.484-0.965-0.676
			c-0.29-0.194-0.579-0.387-0.677-0.483V52.73h3.381C60.148,52.73,60.051,52.828,60.051,52.828z M57.057,53.986
			c0.483,0.291,0.966,0.58,0.966,0.966v4.346l-0.097,0.098c-0.482,0.29-0.965,0.579-1.449,0.964v-5.504
			c0-0.098-0.096-0.29-0.29-0.29c-0.192,0-0.289,0.096-0.289,0.29v5.31c-0.289-0.481-0.869-0.868-1.353-1.158v-4.056
			c0-0.386,0.483-0.675,0.966-0.966c0.29-0.194,0.483-0.29,0.772-0.483C56.574,53.696,56.864,53.89,57.057,53.986z M49.139,60.744
			c-0.386-0.481-0.869-0.965-1.449-1.255c0.194-0.192,0.387-0.29,0.676-0.481c0.29-0.193,0.483-0.289,0.676-0.483
			c0.194,0.194,0.483,0.385,0.676,0.483c0.194,0.096,0.386,0.29,0.58,0.387C49.815,59.779,49.333,60.263,49.139,60.744z
			 M50.877,68.277c0.097,1.062,0.29,2.125,0.482,2.994c0.482,1.642,1.352,2.608,2.318,3.283c-5.215-0.675-5.698-4.442-6.181-8.015
			c-0.097-0.868-0.193-1.737-0.385-2.511c-0.676-2.704-1.642-3.863-4.057-4.539c-0.868-0.192-1.448-0.579-1.834-0.868
			c0.773,0.193,1.546,0.289,2.222,0.289C49.622,59.297,50.298,64.028,50.877,68.277z M53.002,75.713h14.581v0.773H53.002V75.713z
			 M67.101,74.459c0.965-0.58,1.834-1.546,2.221-3.188c0.192-0.869,0.385-1.836,0.482-2.994c0.58-4.249,1.159-8.98,7.532-9.367
			c0.676,0,1.352-0.095,2.028-0.289c-0.387,0.289-0.966,0.578-1.738,0.773c-2.414,0.675-3.38,1.833-4.056,4.536
			c-0.193,0.774-0.29,1.642-0.386,2.511C72.604,70.015,72.122,73.685,67.101,74.459z M66.134,50.509l-0.193,0.096
			c-0.193-0.192-0.484-0.385-0.773-0.385h-0.386v-0.676c0.772-0.097,1.738-0.387,2.608-1.063c0.096-0.097,0.096-0.097,0.193-0.193
			L66.134,50.509z M71.156,37.376c0.677-0.58,1.545-0.87,2.607-0.676c0.192,0,0.29-0.097,0.386-0.289
			c0-0.193-0.096-0.29-0.193-0.386c-0.096,0-0.771-0.29-1.738-0.387h3.863c0,0.29-0.096,0.579-0.386,0.965l-6.759,9.947
			c0.386-0.966,0.579-2.221,0.579-3.572C69.418,42.012,69.514,38.826,71.156,37.376z M48.656,35.639
			c-0.966,0.193-1.739,0.387-1.739,0.387c-0.192,0.096-0.289,0.192-0.192,0.386c0,0.192,0.192,0.289,0.386,0.289
			c1.062-0.097,1.931,0.097,2.606,0.676c1.642,1.449,1.739,4.635,1.739,5.505c0,1.738,0.289,3.186,0.869,4.248l-7.242-10.623
			c-0.193-0.289-0.387-0.675-0.387-0.965h3.959V35.639z M52.035,42.979c0-0.967-0.097-4.443-1.931-6.085l-0.097-0.097
			c3.38,1.255,3.67,4.249,3.67,4.829c0,3.67,0.676,6.084,2.028,7.05c0.096,0,0.096,0.096,0.192,0.096
			c-0.676-0.096-1.353-0.386-2.028-0.869C52.519,47.033,51.938,45.295,52.035,42.979z M53.291,48.481
			c0.869,0.773,1.932,0.966,2.801,1.063v0.676h-0.29c-0.386,0-0.676,0.29-0.966,0.483l0,0l-0.387-0.29l-1.738-2.511l0,0
			C52.905,48.096,53.098,48.288,53.291,48.481z M68.066,74.749c4.538-1.16,5.021-4.829,5.504-8.21
			c0.096-0.868,0.193-1.737,0.385-2.414c0.58-2.607,1.449-3.572,3.67-4.151c1.931-0.579,2.801-1.546,2.897-1.642v-0.097
			c0,0,0.097,0,0.097-0.096c-0.193,0.869-0.773,1.351-1.642,1.835c-1.062,0.675-2.318,1.544-3.09,3.668
			c-0.483,1.45-0.772,2.8-0.966,4.057C74.342,71.368,73.86,73.975,68.066,74.749z M75.694,67.892
			c0.29-1.257,0.483-2.608,0.965-3.961c0.097-0.193,0.194-0.385,0.194-0.579l6.76,3.283c0.483,0.194,0.772,0.483,0.965,0.87
			c0.194,0.482-0.096,0.965-0.193,1.159l-1.738,3.09c-0.097,0.193-0.386,0.581-0.87,0.675c-0.386,0.097-0.771,0-1.254-0.384
			l-5.022-3.381l0,0C75.598,68.471,75.598,68.181,75.694,67.892z M83.129,72.236l0.096-0.191l0,0l0.87-1.545l0.966-1.74
			c0.29-0.483,0.965-0.675,1.449-0.385c0.482,0.289,0.676,0.964,0.386,1.447l-1.932,3.38c-0.096,0.291-0.387,0.387-0.676,0.483
			c-0.29,0.098-0.579,0-0.772-0.096C82.937,73.396,82.84,72.72,83.129,72.236z M91.145,73.009c0.097,0,0.193,0.097,0.29,0.097
			c0.097,0,0.097,0,0.193,0.096l0.193,0.098c1.255,0.579,1.545,2.028,1.642,2.606c-0.579,0.193-2.028,0.677-3.09-0.097l-4.249-2.994
			l0.966-1.736L91.145,73.009z M91.821,78.996c0-0.193,0.096-0.385,0.096-0.579c0-0.579-0.193-1.061-0.579-1.545
			c0.193,0,0.29,0,0.482,0c0.676,0,1.255-0.193,1.642-0.289C92.98,77.452,92.4,78.224,91.821,78.996z M94.042,75.617
			c-0.097-0.484-0.29-1.255-0.773-1.932c0.097,0,0.193,0,0.29,0c0.483,0,0.965-0.096,1.352-0.289
			c0.193-0.096,0.387-0.194,0.483-0.387C94.911,73.879,94.524,74.749,94.042,75.617z M94.524,72.815
			c-0.675,0.387-1.544,0.291-2.607-0.191l-0.482-0.289c-2.511-1.16-3.573-1.739-4.056-1.933l0,0c0.096-0.193,0.386-0.58,0.773-0.677
			c0.772-0.29,1.931-0.094,3.283,0.775c0.772,0.481,2.704,1.447,4.056,0.964c0,0,0,0,0.097,0
			C95.394,72.045,95.008,72.526,94.524,72.815z M96.552,70.209c0-0.097-0.096-0.097-0.193-0.194c-0.193,0-0.289,0.097-0.386,0.194
			c-0.097,0.291-0.289,0.581-0.579,0.676c-0.87,0.29-2.414-0.29-3.477-0.965c-1.641-0.966-2.897-1.256-3.862-0.774
			c-0.097,0-0.097,0.097-0.194,0.097c0-0.579-0.387-1.062-0.869-1.351c-0.482-0.291-1.063-0.291-1.545-0.096
			c0-0.195,0-0.291-0.097-0.484c-0.193-0.581-0.579-0.966-1.255-1.256l-6.76-3.283c0.676-1.159,1.544-1.739,2.318-2.221
			c0.192-0.097,0.386-0.193,0.482-0.387l5.407,0.387c0.097,0,0.193,0,0.29,0c0.58,0,1.063-0.193,1.448-0.483
			c0.097-0.096,0.193-0.193,0.29-0.385c0.29,0.385,0.772,0.675,1.352,0.675s1.158-0.29,1.448-0.773l0.097,0.098
			c0.676,0.868,1.932,1.253,3.766,1.253c1.353,0,2.897,0.194,3.476,0.966c0.193,0.29,0.29,0.579,0.193,0.87
			c0,0.194,0.097,0.29,0.193,0.386h0.097c0.097,0,0.097,0,0.193,0C98.001,65.671,97.325,67.988,96.552,70.209z M87.765,58.815
			v-0.193v-3.574v-0.192c0-0.579,0.483-1.063,1.063-1.063c0.58,0,1.063,0.485,1.063,1.063v3.959c0,0.58-0.482,1.062-1.063,1.062
			C88.248,59.876,87.765,59.395,87.765,58.815z M95.587,54.758l-0.58,0.098c-2.801,0.192-3.959,0.289-4.442,0.385v-0.096
			c0-0.289,0.096-0.579,0.29-0.965c0.483-0.676,1.642-0.966,3.187-0.966h0.096c0.87,0,3.09-0.096,4.057-1.159l0,0
			c0.097,0.485,0,1.063-0.291,1.643C97.519,54.179,96.746,54.566,95.587,54.758z M98.58,56.786
			c-0.385,0.484-1.448,1.546-2.704,1.449l-5.215-0.483v-1.931l4.539-0.386c0.097,0,0.194,0,0.29,0c0.097,0,0.097,0,0.194,0h0.192
			C97.132,55.241,98.195,56.304,98.58,56.786z M95.394,58.91c1.254,0.098,2.125,0.485,2.607,1.16
			c0.291,0.483,0.291,1.062,0.291,1.642l0,0c-0.87-1.063-2.994-1.159-3.96-1.159h-0.097c-1.642,0-2.704-0.29-3.283-0.966
			c-0.291-0.289-0.291-0.676-0.291-0.965v-0.097C91.048,58.525,92.4,58.622,95.394,58.91z M98.774,60.359
			c-0.097-0.194-0.097-0.386-0.29-0.581c-0.29-0.481-0.676-0.869-1.256-1.06c0.772-0.291,1.352-0.87,1.642-1.257
			C98.871,58.332,98.871,59.395,98.774,60.359z M98.774,53.309c0.097,0.968,0.097,1.932,0.192,2.898
			c-0.29-0.386-0.869-0.966-1.641-1.255c0.579-0.29,0.966-0.579,1.255-1.062C98.58,53.696,98.677,53.503,98.774,53.309z
			 M95.876,43.363c0.097,0.194,0.194,0.289,0.386,0.194c0.096,0,0.193-0.097,0.193-0.194c0.87,2.221,1.449,4.539,1.836,6.953
			c-0.097,0-0.194-0.096-0.291,0c-0.193,0.097-0.29,0.193-0.193,0.387c0.096,0.387,0,0.676-0.194,0.869
			c-0.579,0.676-2.22,0.968-3.476,0.968c-1.835,0-3.09,0.385-3.766,1.253c0,0.098-0.096,0.098-0.096,0.194
			c-0.29-0.483-0.869-0.773-1.449-0.773c-0.579,0-1.063,0.29-1.353,0.677c-0.096-0.098-0.193-0.291-0.289-0.387
			c-0.386-0.386-0.966-0.579-1.738-0.483l-15.161,1.159l13.712-6.566c0.676-0.289,1.063-0.773,1.255-1.255
			c0.097-0.193,0.097-0.29,0.097-0.483c0.097,0,0.192,0.097,0.289,0.097c0.193,0,0.29,0.096,0.483,0.096
			c0.29,0,0.58-0.096,0.869-0.193c0.386-0.194,0.675-0.579,0.772-1.062c0-0.097,0-0.193,0.097-0.29c0.097,0,0.097,0.097,0.194,0.097
			c0.289,0.096,0.579,0.193,0.965,0.193c0.87,0,1.835-0.29,2.897-0.966c1.159-0.675,2.607-1.255,3.477-0.964
			C95.587,42.785,95.78,42.979,95.876,43.363z M95.49,42.108c-1.352-0.483-3.284,0.58-4.056,0.966
			c-1.353,0.772-2.511,1.062-3.283,0.772c-0.387-0.194-0.677-0.483-0.773-0.772l0,0c0.483-0.192,1.642-0.773,4.345-2.029
			c1.16-0.578,2.125-0.675,2.8-0.289C95.008,41.142,95.394,41.625,95.49,42.108C95.587,42.108,95.49,42.108,95.49,42.108z
			 M95.394,40.66c-0.194-0.096-0.29-0.289-0.483-0.386c-0.482-0.29-1.062-0.386-1.642-0.29c0.483-0.677,0.677-1.448,0.869-1.932
			C94.524,38.826,94.911,39.694,95.394,40.66z M91.821,34.576c0.58,0.773,1.063,1.642,1.545,2.414
			c-0.483-0.193-1.256-0.387-2.028-0.29c0.385-0.482,0.579-1.062,0.579-1.545C91.917,34.962,91.917,34.769,91.821,34.576z
			 M90.662,33.61c0.291,0.387,0.581,0.966,0.581,1.545c0,0.773-0.484,1.545-1.449,2.221l-0.386,0.29
			c-2.318,1.545-3.284,2.317-3.67,2.607l-0.097-0.096c-0.097-0.193-0.192-0.58-0.192-0.965c0.096-0.869,0.868-1.739,2.317-2.512
			C88.538,36.218,90.469,35.059,90.662,33.61C90.662,33.707,90.662,33.61,90.662,33.61z M84.385,27.333
			c0.097,0.097,0.29,0.097,0.483,0c0.096-0.097,0.096-0.097,0.096-0.192c1.835,1.544,3.476,3.187,5.021,5.02
			c-0.097,0-0.193,0-0.193,0.097c-0.097,0.097-0.097,0.291,0,0.483c0.193,0.29,0.289,0.58,0.289,0.869
			c-0.192,0.869-1.447,1.932-2.607,2.511c-1.641,0.869-2.51,1.931-2.606,2.993c0,0.097,0,0.097,0,0.192
			c-0.483-0.192-1.063-0.192-1.643,0.097c-0.481,0.29-0.771,0.773-0.868,1.352c-0.097-0.097-0.29-0.097-0.483-0.193
			c-0.58-0.096-1.158,0-1.738,0.482l-12.553,8.596l8.595-12.554c0.289-0.484,0.481-0.87,0.481-1.352h5.795
			c0.965,0,1.738-0.773,1.738-1.738v-4.732c0-0.966-0.772-1.738-1.738-1.738c0.096,0,0.193,0,0.193,0
			c0.289-0.194,0.578-0.386,0.869-0.386C83.902,27.044,84.192,27.141,84.385,27.333z M83.419,26.465
			c-0.58,0.096-1.158,0.579-1.642,1.062h-2.124c0.773-1.062,1.544-1.643,2.317-1.643C82.55,25.884,83.033,26.078,83.419,26.465
			C83.516,26.465,83.419,26.465,83.419,26.465z M82.55,25.306c-0.192,0-0.386-0.096-0.579-0.096l0,0
			c-0.58,0-1.063,0.193-1.544,0.579c0.096-0.869-0.097-1.642-0.291-2.125C80.909,24.147,81.777,24.727,82.55,25.306z M79.267,26.754
			l-0.483,0.773h-2.993l0.676-1.546c0-0.097,0.097-0.192,0.097-0.29c0-0.097,0.096-0.097,0.096-0.192l0.097-0.193
			c0.58-1.256,2.028-1.545,2.608-1.642C79.654,24.244,80.04,25.692,79.267,26.754z M79.074,23.085
			c-0.483,0.095-1.255,0.289-1.932,0.772c0.097-0.58,0-1.158-0.29-1.642c-0.097-0.192-0.194-0.386-0.386-0.483
			C77.336,22.216,78.205,22.603,79.074,23.085z M76.274,22.603c0.385,0.675,0.289,1.545-0.097,2.607l-0.29,0.482
			c-0.29,0.677-0.58,1.256-0.87,1.739h-1.834c0.096-0.579,0.386-1.159,0.771-1.835c0.483-0.772,1.449-2.704,0.966-4.056
			c0,0,0,0,0-0.097C75.501,21.733,75.984,22.119,76.274,22.603z M65.555,19.416c0.29-0.193,0.58-0.29,0.869-0.193
			c0.193,0,0.29-0.097,0.386-0.193c0-0.097,0-0.193,0-0.29c2.415,0.387,4.732,1.063,6.953,1.836c-0.097,0-0.097,0.097-0.193,0.193
			c0,0.193,0.096,0.29,0.193,0.386c0.29,0.097,0.579,0.289,0.675,0.58c0.291,0.87-0.29,2.415-0.964,3.477
			c-0.483,0.771-0.773,1.544-0.87,2.124h-8.787c-0.097-0.289-0.29-0.482-0.579-0.676l0.096-0.096
			c0.87-0.677,1.256-1.932,1.256-3.766C64.686,21.636,64.879,20.091,65.555,19.416z M65.168,18.932L65.168,18.932
			c-1.159,0.966-1.255,3.187-1.159,4.056c0,1.641-0.29,2.704-0.966,3.283c-0.289,0.29-0.676,0.29-0.966,0.29h-0.096
			c0.096-0.483,0.193-1.738,0.386-4.829c0.097-1.255,0.483-2.125,1.159-2.607C64.106,18.932,64.686,18.836,65.168,18.932z
			 M63.817,18.353c-0.193,0.097-0.387,0.097-0.579,0.29c-0.483,0.289-0.87,0.676-1.063,1.255c-0.29-0.773-0.869-1.352-1.256-1.641
			C61.886,18.257,62.852,18.257,63.817,18.353z M60.34,18.546c0.482,0.386,1.545,1.449,1.449,2.704l-0.483,5.215h-1.932
			l-0.386-4.442c0-0.097,0-0.194,0-0.291s0-0.097,0-0.194v-0.192C58.795,19.995,59.858,18.932,60.34,18.546z M59.761,18.257
			c-0.387,0.289-0.966,0.868-1.255,1.641c-0.29-0.579-0.58-0.966-1.063-1.255c-0.194-0.097-0.387-0.193-0.58-0.29
			C57.733,18.257,58.699,18.257,59.761,18.257z M57.057,19.222c0.676,0.386,1.063,1.159,1.159,2.317l0.096,0.58
			c0.194,2.801,0.29,3.959,0.386,4.442h-0.192c-0.29,0-0.58-0.096-0.966-0.29c-0.676-0.482-0.966-1.642-0.966-3.283
			c0-0.869-0.097-3.09-1.158-4.056l0,0C55.995,18.836,56.574,18.932,57.057,19.222z M46.242,21.83
			c0.097-0.291,0.291-0.483,0.676-0.58c0.194-0.097,0.291-0.192,0.194-0.386c0-0.096-0.097-0.192-0.194-0.192
			c2.221-0.87,4.539-1.449,6.953-1.835c0,0.096-0.096,0.193,0,0.29c0.097,0.194,0.192,0.29,0.386,0.194
			c0.386-0.097,0.676,0,0.869,0.193c0.676,0.579,0.966,2.221,0.966,3.476c0,1.835,0.385,3.09,1.255,3.766
			c0.097,0,0.097,0.097,0.193,0.097c-0.193,0.193-0.386,0.385-0.579,0.676h-8.788c-0.096-0.676-0.483-1.353-0.87-2.125
			C46.532,24.244,45.855,22.699,46.242,21.83z M45.565,21.539L45.565,21.539c-0.482,1.353,0.483,3.381,0.967,4.153
			c0.385,0.677,0.676,1.256,0.771,1.835H45.47c-0.291-0.58-0.579-1.256-0.966-2.028c-0.579-1.159-0.676-2.125-0.29-2.8
			C44.6,22.119,45.083,21.733,45.565,21.539z M44.118,21.733c-0.097,0.194-0.291,0.291-0.387,0.483
			c-0.289,0.483-0.386,1.062-0.289,1.642c-0.676-0.483-1.449-0.677-1.932-0.869C42.38,22.603,43.248,22.216,44.118,21.733z
			 M41.22,23.665c0.58,0.097,2.027,0.483,2.607,1.642l0.966,2.125H41.8l-0.096-0.097c-0.097-0.097-0.097-0.192-0.194-0.289
			c0-0.097-0.097-0.097-0.097-0.193l-0.096-0.194C40.545,25.692,41.027,24.244,41.22,23.665z M40.545,23.665
			c-0.193,0.483-0.387,1.255-0.29,2.027c-0.483-0.386-1.063-0.579-1.546-0.579c-0.193,0-0.385,0-0.579,0.097
			C38.903,24.727,39.676,24.147,40.545,23.665z M38.613,25.884C38.613,25.884,38.709,25.884,38.613,25.884
			c0.772,0,1.545,0.484,2.221,1.449l0.097,0.194h-2.125c-0.482-0.483-1.062-0.966-1.642-1.062c0,0,0,0-0.097,0
			C37.551,26.175,38.034,25.884,38.613,25.884z M30.888,32.258c-0.097-0.097-0.097-0.097-0.193-0.097
			c1.544-1.833,3.186-3.476,5.021-5.02c0,0.096,0,0.192,0.097,0.192c0.097,0.097,0.29,0.097,0.482,0
			c0.291-0.192,0.58-0.289,0.87-0.289c0.29,0.097,0.58,0.192,0.869,0.386c0.097,0,0.193,0,0.193,0c-0.966,0-1.738,0.772-1.738,1.738
			v4.732c0,0.964,0.772,1.738,1.738,1.738h5.794c0,0.387,0.193,0.868,0.482,1.255l8.595,12.554l-12.553-8.594
			c-0.58-0.386-1.16-0.58-1.739-0.483c-0.193,0-0.291,0.097-0.482,0.193c0-0.096,0-0.193,0-0.29
			c-0.097-0.482-0.386-0.772-0.772-1.062c-0.483-0.291-1.159-0.291-1.642-0.097c0-0.097,0-0.097,0-0.193
			c-0.097-1.062-1.063-2.028-2.607-2.993c-1.159-0.676-2.414-1.642-2.607-2.511c-0.097-0.29,0-0.58,0.29-0.869
			C30.984,32.548,30.984,32.355,30.888,32.258z M29.922,33.61C29.922,33.61,29.922,33.707,29.922,33.61
			c0.29,1.449,2.125,2.607,2.897,3.09c1.351,0.773,2.221,1.643,2.317,2.512c0.097,0.385-0.097,0.772-0.193,0.965l-0.096,0.096
			c-0.386-0.29-1.448-1.062-3.959-2.8c-1.063-0.773-1.642-1.545-1.642-2.318C29.343,34.576,29.632,34.094,29.922,33.61z
			 M28.764,34.576c0,0.192-0.096,0.386-0.096,0.579c0,0.58,0.193,1.063,0.579,1.545c-0.772-0.097-1.642,0.097-2.124,0.29
			C27.702,36.218,28.184,35.349,28.764,34.576z M26.639,38.052c0.096,0.483,0.29,1.255,0.772,1.932c-0.579-0.096-1.158,0-1.641,0.29
			c-0.193,0.097-0.387,0.194-0.483,0.386C25.674,39.694,26.156,38.921,26.639,38.052z M26.059,40.854
			c0.676-0.386,1.545-0.29,2.608,0.096l0.482,0.193c2.511,1.159,3.573,1.74,4.056,1.932l0,0c-0.096,0.193-0.386,0.578-0.773,0.675
			c-0.772,0.29-1.931,0.097-3.283-0.771c-0.676-0.387-2.124-1.16-3.283-1.16c-0.289,0-0.483,0-0.772,0.097c0,0,0,0-0.097,0
			C25.287,41.625,25.577,41.142,26.059,40.854z M24.128,43.363c0,0.097,0.097,0.097,0.193,0.194c0.194,0,0.291-0.097,0.386-0.194
			c0.097-0.289,0.289-0.579,0.579-0.675c0.87-0.291,2.415,0.291,3.477,0.964c1.159,0.677,2.125,0.967,2.897,0.967
			c0.386,0,0.675-0.097,0.965-0.194c0.097,0,0.097-0.096,0.193-0.096c0,0.58,0.386,1.062,0.869,1.351
			c0.289,0.194,0.579,0.194,0.869,0.194c0.29,0,0.482-0.097,0.676-0.194c0,0.194,0,0.291,0.096,0.483
			c0.193,0.58,0.58,0.966,1.255,1.256l13.712,6.566l-15.161-1.158c-0.772-0.098-1.352,0.096-1.738,0.481
			c-0.097,0.098-0.193,0.194-0.29,0.387c-0.29-0.387-0.773-0.676-1.352-0.676c-0.58,0-1.159,0.289-1.449,0.772l-0.096-0.096
			c-0.676-0.869-1.931-1.255-3.766-1.255c-1.352,0-2.897-0.194-3.477-0.966c-0.192-0.289-0.289-0.579-0.192-0.87
			c0-0.192-0.097-0.289-0.193-0.385c-0.097,0-0.193,0-0.291,0C22.68,47.902,23.259,45.584,24.128,43.363z M32.819,54.855v0.192
			v3.574v0.193c0,0.58-0.483,1.062-1.062,1.062c-0.58,0-1.063-0.481-1.063-1.062v-3.959c0-0.579,0.482-1.063,1.063-1.063
			C32.433,53.792,32.819,54.277,32.819,54.855z M24.997,58.91l0.581-0.095c2.8-0.193,3.958-0.29,4.442-0.387v0.097
			c0,0.29-0.097,0.579-0.291,0.87c-0.482,0.675-1.642,0.964-3.283,0.964c-0.869,0-3.091,0.096-4.056,1.159l0,0
			c-0.097-0.484,0-1.063,0.29-1.642C23.066,59.395,23.838,59.008,24.997,58.91z M22.1,56.786c0.387-0.481,1.449-1.545,2.704-1.448
			l5.215,0.483v1.931l-4.442,0.387c-0.097,0-0.194,0-0.291,0s-0.097,0-0.193,0h-0.192C23.549,58.332,22.487,57.27,22.1,56.786z
			 M25.287,54.758c-1.255-0.096-2.124-0.481-2.606-1.159c-0.29-0.482-0.29-1.06-0.29-1.641l0,0c0.869,1.062,3.09,1.159,4.056,1.159
			c1.641,0,2.704,0.29,3.283,0.966c0.291,0.29,0.291,0.675,0.291,0.964v0.097C29.536,55.047,28.281,54.952,25.287,54.758z
			 M21.908,53.309c0.096,0.194,0.096,0.387,0.289,0.581c0.29,0.483,0.677,0.868,1.255,1.062c-0.772,0.289-1.352,0.869-1.641,1.255
			C21.714,55.241,21.811,54.277,21.908,53.309z M21.908,60.359c-0.097-0.964-0.097-1.932-0.194-2.897
			c0.29,0.387,0.87,0.966,1.641,1.257c-0.578,0.289-0.965,0.579-1.255,1.06C22.004,59.974,21.908,60.166,21.908,60.359z
			 M24.708,70.307c-0.096-0.195-0.192-0.292-0.386-0.195c-0.096,0-0.193,0.097-0.193,0.195c-0.869-2.222-1.448-4.54-1.835-6.955
			c0.097,0,0.097,0,0.194,0h0.097c0.193-0.095,0.29-0.193,0.193-0.385c-0.097-0.387,0-0.677,0.192-0.868
			c0.58-0.677,2.221-0.968,3.477-0.968c1.835,0,3.09-0.387,3.766-1.255c0-0.098,0.096-0.098,0.096-0.192
			c0.29,0.481,0.869,0.771,1.449,0.771c0.579,0,1.062-0.29,1.352-0.677c0.096,0.098,0.193,0.289,0.29,0.387
			c0.386,0.29,0.868,0.483,1.448,0.483c0.096,0,0.193,0,0.29,0l5.505-0.386c0.192,0.096,0.386,0.29,0.481,0.386
			c0.773,0.482,1.643,1.063,2.222,2.221l-6.856,3.283c-0.676,0.29-1.063,0.774-1.255,1.257c0.096,0.096,0.096,0.192,0.096,0.387
			c-0.096,0-0.193-0.097-0.29-0.097c-0.482-0.097-0.87-0.097-1.352,0.193c-0.386,0.193-0.676,0.579-0.773,1.062
			c0,0.096,0,0.192-0.096,0.289c-0.097,0-0.097-0.097-0.193-0.097c-0.965-0.386-2.318-0.096-3.862,0.774
			c-1.159,0.676-2.607,1.255-3.477,0.965C24.997,70.79,24.804,70.596,24.708,70.307z M25.094,71.56
			c1.352,0.485,3.284-0.579,4.056-0.964c1.352-0.774,2.511-1.063,3.283-0.774c0.387,0.193,0.677,0.485,0.773,0.678l0,0
			c-0.483,0.192-1.641,0.771-4.345,2.026c-1.159,0.58-2.125,0.676-2.801,0.289C25.577,72.526,25.287,72.045,25.094,71.56
			L25.094,71.56z M25.287,73.009c0.193,0.097,0.291,0.291,0.483,0.387c0.386,0.193,0.869,0.289,1.353,0.289c0.096,0,0.193,0,0.289,0
			c-0.482,0.677-0.772,1.448-0.869,1.932C26.156,74.749,25.674,73.879,25.287,73.009z M28.764,78.996
			c-0.58-0.772-1.062-1.544-1.545-2.413c0.386,0.095,0.965,0.289,1.642,0.289c0.193,0,0.289,0,0.483,0
			c-0.386,0.484-0.58,1.062-0.58,1.545C28.667,78.611,28.764,78.803,28.764,78.996z M29.922,79.961
			c-0.291-0.383-0.579-0.965-0.579-1.544c0-0.772,0.481-1.448,1.448-2.221l0.482-0.387c2.317-1.545,3.284-2.22,3.669-2.607
			L35.04,73.3c0.097,0.193,0.194,0.579,0.194,0.964c-0.097,0.869-0.87,1.739-2.318,2.512C32.047,77.356,30.212,78.512,29.922,79.961
			L29.922,79.961z M36.2,86.24c-0.097-0.097-0.29-0.097-0.484,0c-0.097,0.095-0.097,0.095-0.097,0.193
			c-1.834-1.546-3.476-3.187-5.021-5.022c0.097,0,0.193,0,0.193-0.097c0.097-0.097,0.097-0.289,0-0.482
			c-0.193-0.291-0.29-0.579-0.29-0.871c0.193-0.868,1.448-1.93,2.608-2.509c1.641-0.869,2.51-1.933,2.606-2.993
			c0-0.097,0-0.097,0-0.195c0.194,0.098,0.484,0.195,0.773,0.195s0.579-0.097,0.869-0.195c0.484-0.289,0.773-0.771,0.87-1.351
			c0.097,0.096,0.289,0.096,0.482,0.193c0.097,0,0.291,0,0.387,0c0.483,0,0.869-0.193,1.352-0.482l4.828-3.284l0,0
			c0.29,1.451,0.773,2.608,1.642,3.669l-2.51,3.669c-0.386,0.579-0.483,1.16-0.386,1.739c0,0.194,0.097,0.289,0.193,0.482
			c-0.483,0.097-1.063,0.387-1.352,0.871c-0.193,0.387-0.29,0.868-0.193,1.35c0,0.097,0.097,0.193,0.097,0.291
			c-0.097,0-0.097,0-0.194,0c-1.063,0.096-2.027,1.063-2.993,2.608c-0.676,1.158-1.641,2.414-2.511,2.605
			C36.778,86.624,36.489,86.528,36.2,86.24z M37.165,87.203c1.351-0.289,2.607-2.123,2.994-2.896
			c0.772-1.351,1.642-2.221,2.511-2.316c0.386-0.098,0.773,0.096,0.965,0.194l0.097,0.095c-0.289,0.386-1.062,1.448-2.8,3.96
			c-0.772,1.062-1.545,1.641-2.318,1.641C38.13,87.783,37.551,87.493,37.165,87.203L37.165,87.203z M38.13,88.364
			c0.193,0,0.385,0.097,0.579,0.097l0,0c0.58,0,1.063-0.191,1.546-0.58c-0.097,0.868,0.097,1.644,0.29,2.125
			C39.676,89.424,38.903,88.942,38.13,88.364z M41.317,86.817l2.993-4.245l1.739,0.963l-1.931,4.055
			c0,0.098-0.097,0.193-0.097,0.291c0,0.097-0.097,0.097-0.097,0.193l-0.097,0.196c-0.58,1.251-2.027,1.542-2.607,1.639
			C41.027,89.327,40.545,87.88,41.317,86.817z M41.51,90.489c0.483-0.097,1.256-0.293,1.932-0.774c-0.097,0.581,0,1.162,0.289,1.642
			c0.096,0.193,0.193,0.388,0.387,0.484C43.248,91.453,42.38,90.97,41.51,90.489z M44.31,91.069
			c-0.386-0.677-0.289-1.545,0.193-2.609l0.193-0.483c1.159-2.51,1.738-3.574,1.932-4.057l0,0c0.193,0.098,0.58,0.387,0.675,0.774
			c0.289,0.773,0.096,1.93-0.771,3.283c-0.483,0.771-1.449,2.799-0.967,4.055c0,0,0,0,0,0.099
			C45.083,91.841,44.6,91.55,44.31,91.069z M54.16,94.351c-0.193,0-0.29,0.097-0.386,0.193c0,0.097,0,0.193,0,0.291
			c-2.415-0.388-4.732-1.065-6.953-1.836c0.096,0,0.096-0.097,0.192-0.194c0-0.193-0.097-0.288-0.192-0.387
			c-0.29-0.097-0.58-0.287-0.676-0.577c-0.29-0.871,0.29-2.417,0.966-3.477c0.966-1.642,1.255-2.896,0.772-3.864
			c0-0.097-0.097-0.097-0.097-0.192c0.58,0,1.063-0.387,1.352-0.868c0.29-0.483,0.29-1.064,0.097-1.547c0.193,0,0.29,0,0.482-0.098
			c0.579-0.191,0.966-0.578,1.256-1.254l0.482-1.062c0.193,0.192,0.482,0.387,0.772,0.481v1.159c0,0.097,0,0.097,0,0.193
			c-0.964,0.386-2.028,1.16-2.511,2.705c-0.096,0.289-0.192,0.771-0.192,1.352c-0.097,0.87-0.193,2.028-0.773,2.318
			c-0.193,0.095-0.29,0.095-0.579,0c-0.193-0.098-0.29-0.098-0.29-0.098c-0.194-0.097-0.387,0-0.387,0.193
			c-0.097,0.194,0,0.387,0.193,0.387c0.097,0.099,0.194,0.099,0.387,0.099c0.096,0,0.289,0.095,0.482,0.095
			c-0.773,0-1.448,0.674-1.448,1.544c0,0.869,0.675,1.545,1.545,1.545h7.242c-0.097,1.158-0.289,2.316-0.869,2.801
			C54.836,94.351,54.546,94.447,54.16,94.351z M55.416,94.737C55.416,94.641,55.512,94.641,55.416,94.737
			c0.869-0.774,1.158-2.221,1.158-3.284h1.643c0,0.193,0,0.291,0,0.484c-0.097,1.255-0.483,2.123-1.159,2.606
			C56.574,94.737,55.898,94.737,55.416,94.737z M56.768,95.221c0.193-0.097,0.386-0.097,0.579-0.291
			c0.482-0.289,0.869-0.676,1.063-1.257c0.289,0.774,0.868,1.352,1.255,1.643C58.699,95.412,57.733,95.315,56.768,95.221z
			 M60.34,95.024c-0.482-0.384-1.545-1.448-1.449-2.703l0.097-0.868h2.704v0.193c0,0.098,0,0.194,0,0.291c0,0.095,0,0.095,0,0.193
			v0.19C61.886,93.576,60.726,94.641,60.34,95.024z M60.919,95.412c0.387-0.288,0.967-0.868,1.256-1.643
			c0.29,0.581,0.58,0.968,1.063,1.255c0.192,0.1,0.386,0.196,0.579,0.293C62.852,95.315,61.886,95.412,60.919,95.412z
			 M63.624,94.447c-0.675-0.387-1.062-1.16-1.159-2.316l-0.097-0.581v-0.097h1.642c0.097,1.063,0.291,2.607,1.159,3.284l0,0
			C64.686,94.737,64.106,94.737,63.624,94.447z M74.438,91.744c-0.097,0.288-0.29,0.483-0.675,0.577
			c-0.193,0.097-0.289,0.195-0.193,0.387c0,0.097,0.096,0.194,0.193,0.194c-2.221,0.867-4.539,1.448-6.953,1.835
			c0-0.097,0.097-0.193,0-0.29c-0.096-0.193-0.193-0.29-0.386-0.193c-0.386,0.097-0.676,0-0.869-0.193
			c-0.579-0.484-0.869-1.643-0.869-2.799h7.339c0.869,0,1.545-0.679,1.545-1.547l0,0c0-0.772-0.677-1.445-1.449-1.544
			c0.192,0,0.386-0.097,0.482-0.097c0.097,0,0.193-0.096,0.387-0.096c0.193-0.097,0.29-0.289,0.193-0.387
			c-0.097-0.192-0.291-0.289-0.387-0.192c0,0-0.097,0-0.29,0.095c-0.194,0.097-0.386,0-0.58,0c-0.482-0.29-0.676-1.447-0.772-2.316
			c-0.097-0.482-0.097-0.968-0.193-1.352c-0.482-1.45-1.544-2.221-2.511-2.705c0-0.095,0.097-0.095,0.097-0.193V79.77
			c0.387,0,0.676-0.192,0.87-0.291l0.386,0.869c0.29,0.677,0.772,1.063,1.255,1.256c0.193,0.095,0.29,0.095,0.483,0.095
			c0,0.096-0.097,0.193-0.097,0.292c-0.097,0.482-0.097,0.87,0.193,1.351c0.29,0.483,0.869,0.773,1.352,0.868
			c0,0.098-0.097,0.098-0.097,0.194c-0.386,0.967-0.096,2.319,0.773,3.866C74.149,89.424,74.729,90.97,74.438,91.744z
			 M75.018,92.032L75.018,92.032c0.483-1.35-0.483-3.378-0.965-4.152c-0.772-1.352-1.062-2.51-0.772-3.284
			c0.194-0.387,0.483-0.676,0.675-0.771l0,0c0.193,0.482,0.773,1.643,2.029,4.345c0.579,1.157,0.675,2.125,0.29,2.8
			C75.984,91.55,75.501,91.841,75.018,92.032z M76.467,91.841c0.097-0.194,0.289-0.291,0.386-0.484
			c0.29-0.48,0.387-1.062,0.29-1.642c0.677,0.481,1.448,0.678,1.932,0.869C78.302,90.97,77.433,91.453,76.467,91.841z M79.46,89.908
			c-0.58-0.097-2.028-0.484-2.607-1.639l-2.221-4.734l1.738-0.963l2.607,3.668c0.097,0.095,0.097,0.193,0.193,0.289
			c0,0.096,0.096,0.096,0.096,0.194l0.097,0.192C80.04,87.88,79.654,89.327,79.46,89.908z M80.136,89.908
			c0.193-0.484,0.387-1.253,0.291-2.027c0.482,0.389,1.061,0.58,1.544,0.58l0,0c0.193,0,0.387,0,0.579-0.097
			C81.777,88.942,80.909,89.424,80.136,89.908z M81.971,87.783c-0.773,0-1.448-0.482-2.221-1.448l-0.29-0.481
			c-1.544-2.318-2.221-3.282-2.607-3.669l0.097-0.098c0.193-0.096,0.58-0.194,0.966-0.194c0.868,0.098,1.738,0.87,2.511,2.316
			c0.482,0.774,1.642,2.705,2.993,2.9c0,0,0,0,0.097,0C83.033,87.493,82.55,87.783,81.971,87.783z M84.965,86.528
			c0-0.096,0-0.193-0.096-0.193c-0.097-0.095-0.291-0.095-0.483,0c-0.29,0.193-0.579,0.289-0.869,0.289
			c-0.869-0.191-1.931-1.447-2.51-2.605c-0.87-1.644-1.932-2.512-2.994-2.608c-0.096,0-0.096,0-0.193,0
			c0-0.097,0.097-0.194,0.097-0.291c0.096-0.482,0.096-0.868-0.193-1.35c-0.29-0.484-0.773-0.774-1.353-0.871
			c0.097-0.097,0.097-0.289,0.193-0.482c0.096-0.579,0-1.16-0.483-1.739l-2.414-3.572c0.869-0.967,1.352-2.221,1.642-3.671
			l4.828,3.285c0.483,0.289,0.966,0.482,1.352,0.482c0.097,0,0.29,0,0.387,0c0.194,0,0.29-0.096,0.483-0.193
			c0,0.097,0,0.193,0,0.291c0.096,0.483,0.386,0.772,0.771,1.062c0.29,0.192,0.58,0.192,0.87,0.192s0.483-0.095,0.773-0.192
			c0,0.097,0,0.097,0,0.192c0.097,1.063,1.062,2.029,2.606,2.993c1.16,0.677,2.415,1.645,2.608,2.512c0.096,0.29,0,0.579-0.29,0.869
			c-0.096,0.098-0.096,0.29,0,0.483c0.097,0.096,0.097,0.096,0.193,0.096C88.441,83.246,86.8,84.983,84.965,86.528z"/>
	</g>
</g>
<g>
	<path fill="#C3002F" d="M123.439,43.411l2.092,0.018v0.577c0,0.746-0.307,1.365-0.92,1.858c0.373,0.565,0.559,1.353,0.559,2.363
		v8.081c0,0.733,0.336,1.311,1.01,1.731v0.217h-2.236c-0.818-0.192-1.227-0.77-1.227-1.732v-5.339
		c-0.986,0.337-2.718,0.649-5.195,0.938c-1.106,0.361-1.659,1.082-1.659,2.165c0,1.203,0.77,1.804,2.309,1.804
		c0.457,0,1.25-0.12,2.381-0.361v2.453c-0.625,0.096-1.443,0.168-2.453,0.216c-2.237,0-3.704-0.793-4.401-2.381
		c-0.192-0.625-0.289-1.227-0.289-1.804v-0.072c0-2.284,1.227-3.727,3.68-4.329c3.511-0.336,5.267-0.673,5.267-1.01
		c0.145-0.24,0.217-0.433,0.217-0.577v-0.289c-0.253-0.962-1.19-1.443-2.814-1.443h-0.216c-1.684,0-2.742,0.577-3.175,1.731
		c-0.048,0.337-0.12,0.505-0.216,0.505h-2.381c0-1.959,1.202-3.402,3.607-4.329c0.661-0.145,1.431-0.24,2.309-0.289
		c1.094-0.036,2.11,0.114,3.048,0.451C123.265,44.289,123.5,43.904,123.439,43.411z"/>
	<path fill="#C3002F" d="M133.846,44.061c2.693,0,4.449,1.07,5.267,3.21l0.072,0.812v10.281h-2.543V48.335
		c-0.024-0.577-0.256-1.052-0.695-1.425s-1.109-0.529-2.011-0.469c-0.986,0-1.948,0.247-2.886,0.74v9.054
		c0,0.866,0.439,1.467,1.317,1.804h0.09v0.325h-3.95v-9.866c0-0.649-0.247-1.227-0.74-1.731v-0.072
		C129.812,44.938,131.838,44.061,133.846,44.061z"/>
	<path fill="#C3002F" d="M144.29,44.169c3.235,0,4.852,1.563,4.852,4.689v9.56h-2.561v-9.145c0-1.238-0.247-2.032-0.74-2.381
		c-0.541-0.229-1.004-0.343-1.389-0.343h-0.577c-0.818,0-1.695,0.331-2.633,0.992h-0.09v-2.471
		C141.993,44.47,143.039,44.169,144.29,44.169z"/>
	<path fill="#C3002F" d="M151.125,44.187h3.95v9.776c0,1.419,0.758,2.128,2.272,2.128h1.028c1.527,0,2.291-0.764,2.291-2.291v-9.613
		h2.524V54.36c0,1.828-1.082,3.09-3.246,3.788c-0.661,0.205-1.371,0.307-2.129,0.307c-1.947,0-3.469-0.631-4.563-1.894
		c-0.529-0.577-0.794-1.653-0.794-3.229v-7.485c0-0.529-0.445-0.98-1.335-1.353V44.187z"/>
	<path fill="#C3002F" d="M157.854,39.173h2.597v1.298h7.432v0.072l-1.227,2.092h-8.802V39.173z"/>
	<path fill="#C3002F" d="M165.825,44.313h3.914v9.884c0,1.359,0.655,2.038,1.966,2.038c1.491,0,2.646-0.812,3.464-2.435
		c0.096-0.42,0.144-0.866,0.144-1.334v-8.153h2.525V56.47c0.024,0.806,0.463,1.305,1.316,1.497v0.378h-3.842v-1.407
		c-1.166,1.046-2.524,1.569-4.076,1.569c-2.718,0-4.076-1.593-4.076-4.78v-7.612c0-0.637-0.445-1.136-1.335-1.497V44.313z"/>
	<path fill="#C3002F" d="M184.565,57.931V58.4h-4.059V43.97h2.796v11.995C183.411,57.119,183.832,57.775,184.565,57.931z"/>
	<path fill="#C3002F" d="M195.55,43.411l2.092,0.018v0.577c0,0.746-0.307,1.365-0.92,1.858c0.373,0.565,0.56,1.353,0.56,2.363v8.081
		c0,0.733,0.336,1.311,1.01,1.731v0.217h-2.236c-0.818-0.192-1.227-0.77-1.227-1.732v-5.339c-0.986,0.337-2.718,0.649-5.194,0.938
		c-1.106,0.361-1.659,1.082-1.659,2.165c0,1.203,0.769,1.804,2.309,1.804c0.456,0,1.25-0.12,2.381-0.361v2.453
		c-0.626,0.096-1.443,0.168-2.453,0.216c-2.236,0-3.704-0.793-4.401-2.381c-0.192-0.625-0.288-1.227-0.288-1.804v-0.072
		c0-2.284,1.227-3.727,3.679-4.329c3.512-0.336,5.268-0.673,5.268-1.01c0.144-0.24,0.216-0.433,0.216-0.577v-0.289
		c-0.252-0.962-1.19-1.443-2.813-1.443h-0.217c-1.684,0-2.741,0.577-3.174,1.731c-0.049,0.337-0.121,0.505-0.217,0.505h-2.381
		c0-1.959,1.202-3.402,3.607-4.329c0.661-0.145,1.431-0.24,2.309-0.289c1.094-0.036,2.11,0.114,3.048,0.451
		C195.375,44.289,195.609,43.904,195.55,43.411z"/>
	<path fill="#C3002F" d="M203.667,44.151h1.082c1.731,0,3.181,0.511,4.347,1.533v2.706c-1.311-1.263-2.669-1.894-4.076-1.894h-0.901
		c-1.348,0-2.099,0.511-2.255,1.533v0.09c0,0.541,1.322,0.992,3.968,1.353c2.537,0.662,3.806,2.141,3.806,4.437
		c0,1.984-0.962,3.367-2.886,4.148c-0.781,0.241-1.539,0.361-2.272,0.361h-0.541c-1.611,0-3.085-0.421-4.419-1.263v-2.976
		c1.202,1.323,2.705,1.984,4.509,1.984c2.057,0,3.085-0.782,3.085-2.345c0-1.31-1.209-2.092-3.626-2.345
		c-2.766-0.42-4.148-1.599-4.148-3.535v-0.09C199.338,45.816,200.781,44.583,203.667,44.151z"/>
	<path fill="#C3002F" d="M199.392,41.157h9.469v1.966h-10.678L199.392,41.157z"/>
	<path fill="#C3002F" d="M210.971,44.169h3.896v8.658c0,1.274,0.865,2.285,2.597,3.03c0.409,0.096,0.77,0.144,1.082,0.144
		c1.251,0,1.876-0.89,1.876-2.669v-9.163h2.525v9.235c0,3.223-1.299,4.834-3.896,4.834h-0.361c-1.406,0-2.682-0.505-3.823-1.515
		v1.371h-3.752c-0.097,0-0.145-0.048-0.145-0.144v-0.217c0.866-0.313,1.299-0.745,1.299-1.298c0.048,0,0.072-0.145,0.072-0.433
		v-9.812c0-0.877-0.457-1.431-1.371-1.659V44.169z"/>
	<path fill="#C3002F" d="M234.095,43.393h2.688v0.505c0,0.445-0.24,0.932-0.722,1.461c1.022,0.746,1.533,1.816,1.533,3.21
		l-0.018,9.848h-2.544v-9.776c0-1.407-0.938-2.165-2.813-2.273l-0.522,0.018c-1.708,0.097-2.562,0.824-2.562,2.183v1.966
		c0.36-0.336,0.722-0.505,1.082-0.505h2.345v1.894l-0.072,0.505h-1.983c-0.794,0-1.251,0.487-1.371,1.461v4.527h-2.634v-8.892
		c0-2.056,0.463-3.397,1.389-4.022c1.143-0.926,2.478-1.389,4.005-1.389c0.854-0.012,1.461,0.066,1.821,0.234
		C234.017,44.145,234.143,43.826,234.095,43.393z"/>
	<path fill="#C3002F" d="M236.096,39.632c0.373,0.079,0.713,0.277,1.02,0.595c0.307,0.319,0.469,0.704,0.487,1.155
		c0.018,0.451-0.097,0.83-0.343,1.136s-0.646,0.49-1.199,0.55h-0.686h-9.181l1.587-1.948h5.447c0.096-0.397,0.315-0.733,0.658-1.01
		c0.343-0.276,0.703-0.444,1.082-0.505C235.348,39.545,235.724,39.555,236.096,39.632z M235.546,42.113
		c0.343,0,0.568-0.057,0.677-0.171s0.162-0.292,0.162-0.532c-0.072-0.433-0.366-0.64-0.884-0.622
		c-0.517,0.018-0.775,0.225-0.775,0.622c0,0.241,0.051,0.418,0.153,0.532C234.98,42.056,235.203,42.113,235.546,42.113z"/>
	<path fill="#C3002F" d="M244.898,44.042h0.541c2.008,0,3.505,0.812,4.491,2.435c0.264,0.649,0.396,1.353,0.396,2.11v9.65h-2.525
		v-9.65c0-1.407-0.812-2.11-2.435-2.11h-0.234c-1.095,0-1.96,0.271-2.598,0.812v10.949h-2.525v-9.65
		c0-0.722-0.234-1.263-0.703-1.624V46.64c0.541-0.637,1.539-1.316,2.994-2.038C243.274,44.229,244.141,44.042,244.898,44.042z"/>
	<path fill="#C3002F" d="M251.788,44.205h3.914v9.56c0,1.058,0.385,1.768,1.154,2.128c0.637,0.157,1.208,0.235,1.713,0.235
		c1.359,0,2.23-0.433,2.615-1.299l0.072-0.577v-2.85h-2.453v-2.381h2.453v-4.816h2.615v4.816h2.381l-0.991,2.381h-1.39v1.875
		c0,2.104-0.547,3.481-1.641,4.13c-0.927,0.674-2.093,1.01-3.499,1.01h-0.415c-2.537,0-4.197-1.01-4.979-3.03
		c-0.108-0.409-0.162-0.787-0.162-1.136v-7.918c0-0.854-0.463-1.479-1.389-1.876V44.205z"/>
	<path fill="#C3002F" d="M268.851,44.169c3.234,0,4.852,1.563,4.852,4.689v9.56h-2.562v-9.145c0-1.238-0.246-2.032-0.739-2.381
		c-0.541-0.229-1.004-0.343-1.389-0.343h-0.577c-0.818,0-1.695,0.331-2.634,0.992h-0.09v-2.471
		C266.554,44.47,267.6,44.169,268.851,44.169z"/>
	<path fill="#C3002F" d="M276.138,44.169h2.615v12.554c0,0.493,0.438,0.962,1.316,1.407c0.048,0.108,0.072,0.192,0.072,0.252h-4.004
		V44.169z M281.44,44.115h2.615v12.301c0,0.746,0.463,1.269,1.389,1.569v0.343h-4.004V44.115z"/>
	<path fill="#C3002F" d="M293.272,44.133c2.717,0,4.497,0.938,5.339,2.813c0.145,0.518,0.216,1.022,0.216,1.515v8.081
		c0,0.625,0.313,1.083,0.938,1.371v0.36h-2.164c-0.746,0-1.179-0.697-1.299-2.092v-4.978c-0.866,0.325-2.573,0.638-5.123,0.938
		c-1.106,0.349-1.659,1.07-1.659,2.165c0,0.89,0.48,1.467,1.443,1.731c0.204,0,0.469,0.024,0.793,0.072
		c0.782-0.048,1.6-0.168,2.453-0.361v2.453c-0.625,0.096-1.442,0.168-2.453,0.216c-2.633,0-4.173-1.058-4.617-3.174
		c-0.048-0.313-0.072-0.625-0.072-0.938v-0.433c0-1.9,1.059-3.198,3.175-3.896c0.901-0.192,2.489-0.409,4.762-0.649
		c0.817-0.276,1.227-0.637,1.227-1.082v-0.216c0-0.842-0.891-1.347-2.67-1.515h-0.36c-1.695,0-2.754,0.577-3.175,1.731
		c-0.061,0.337-0.132,0.505-0.216,0.505h-2.453c0-0.962,0.48-1.996,1.442-3.102C290.062,44.638,291.553,44.133,293.272,44.133z"/>
	<path fill="#C3002F" d="M300.415,46.568h2.597v0.685h3.247l-1.028,2.381h-4.815V46.568z M300.415,54.27h2.597v0.793h3.355
		l-1.354,2.381h-4.599V54.27z"/>
	<path fill="#C3002F" d="M315.098,44.115c1.936,0,3.21,0.842,3.823,2.525c0.192,0.625,0.289,1.491,0.289,2.598v9.019h-2.598V48.66
		c0-1.443-0.602-2.165-1.804-2.165h-0.36c-1.371,0-2.453,0.818-3.247,2.453c-0.048,0.265-0.072,0.481-0.072,0.649v8.658h-2.597
		V46.207c0-0.673-0.457-1.178-1.371-1.515v-0.361h3.968v1.299C312.224,44.62,313.546,44.115,315.098,44.115z"/>
	<path fill="#C3002F" d="M326.1,44.151h1.082c1.731,0,3.181,0.511,4.347,1.533v2.706c-1.311-1.263-2.669-1.894-4.076-1.894h-0.901
		c-1.348,0-2.099,0.511-2.255,1.533v0.09c0,0.541,1.322,0.992,3.968,1.353c2.537,0.662,3.806,2.141,3.806,4.437
		c0,1.984-0.962,3.367-2.886,4.148c-0.781,0.241-1.539,0.361-2.272,0.361h-0.541c-1.611,0-3.085-0.421-4.419-1.263v-2.976
		c1.202,1.323,2.705,1.984,4.509,1.984c2.057,0,3.085-0.782,3.085-2.345c0-1.31-1.209-2.092-3.626-2.345
		c-2.766-0.42-4.148-1.599-4.148-3.535v-0.09C321.771,45.816,323.214,44.583,326.1,44.151z"/>
	<path fill="#C3002F" d="M325.595,39.173h2.597v1.298h7.432v0.072l-1.227,2.092h-8.802V39.173z"/>
	<path fill="#C3002F" d="M333.657,44.259h3.842v8.243c0,2.357,0.408,3.56,1.227,3.607h0.036h0.631c0.89,0,1.335-0.89,1.335-2.669
		v-5.88h2.507v5.808c0,1.828,0.499,2.742,1.497,2.742h0.396c0.891,0,1.335-0.914,1.335-2.742v-9.109h2.508v10.137
		c0,2.225-0.969,3.56-2.904,4.004c-0.445,0.048-0.788,0.072-1.028,0.072c-1.299,0-2.32-0.445-3.066-1.335
		c-0.806,0.89-1.876,1.335-3.21,1.335c-2.514,0-3.771-1.437-3.771-4.311v-7.864c0-0.842-0.444-1.419-1.334-1.732V44.259z"/>
	<path fill="#C3002F" d="M356.13,44.403h0.505c0.481,0,0.962,0.048,1.443,0.144v2.381l-0.505-0.145l-0.505-0.036
		c-1.396,0.024-2.099,0.445-2.11,1.263c-0.013,0.818,0.402,1.227,1.244,1.227h1.082c0.108,0,0.445,0.746,1.011,2.236
		c-0.602-0.048-0.914-0.072-0.938-0.072c-1.6,0.132-2.573,0.914-2.922,2.345v0.198c0.072,1.479,0.998,2.219,2.777,2.219h3.103
		V44.476h2.598v2.092v11.904h-5.771c-3.464,0-5.195-1.491-5.195-4.473c0-1.479,0.577-2.609,1.731-3.391
		c-1.01-0.781-1.515-1.575-1.515-2.381V47.65c0-1.443,0.89-2.477,2.669-3.103C355.313,44.452,355.745,44.403,356.13,44.403z"/>
	<path fill="#C3002F" d="M368.413,44.169c3.234,0,4.852,1.563,4.852,4.689v9.56h-2.562v-9.145c0-1.238-0.246-2.032-0.739-2.381
		c-0.541-0.229-1.004-0.343-1.389-0.343h-0.577c-0.818,0-1.695,0.331-2.634,0.992h-0.09v-2.471
		C366.116,44.47,367.162,44.169,368.413,44.169z"/>
	<path fill="#C3002F" d="M380.3,44.042h0.541c2.008,0,3.505,0.812,4.491,2.435c0.264,0.649,0.396,1.353,0.396,2.11v9.65h-2.525
		v-9.65c0-1.407-0.812-2.11-2.435-2.11h-0.234c-1.095,0-1.96,0.271-2.598,0.812v10.949h-2.525v-9.65
		c0-0.722-0.234-1.263-0.703-1.624V46.64c0.541-0.637,1.539-1.316,2.994-2.038C378.676,44.229,379.542,44.042,380.3,44.042z"/>
	<path fill="#C3002F" d="M391.645,44.151h1.082c1.731,0,3.181,0.511,4.347,1.533v2.706c-1.311-1.263-2.669-1.894-4.076-1.894h-0.901
		c-1.348,0-2.099,0.511-2.255,1.533v0.09c0,0.541,1.322,0.992,3.968,1.353c2.537,0.662,3.806,2.141,3.806,4.437
		c0,1.984-0.962,3.367-2.886,4.148c-0.781,0.241-1.539,0.361-2.272,0.361h-0.541c-1.611,0-3.085-0.421-4.419-1.263v-2.976
		c1.202,1.323,2.705,1.984,4.509,1.984c2.057,0,3.085-0.782,3.085-2.345c0-1.31-1.209-2.092-3.626-2.345
		c-2.766-0.42-4.148-1.599-4.148-3.535v-0.09C387.315,45.816,388.759,44.583,391.645,44.151z"/>
	<path fill="#C3002F" d="M398.949,44.169h3.896v8.658c0,1.274,0.865,2.285,2.597,3.03c0.409,0.096,0.77,0.144,1.082,0.144
		c1.251,0,1.876-0.89,1.876-2.669v-9.163h2.525v9.235c0,3.223-1.299,4.834-3.896,4.834h-0.361c-1.406,0-2.682-0.505-3.823-1.515
		v1.371h-3.752c-0.097,0-0.145-0.048-0.145-0.144v-0.217c0.866-0.313,1.299-0.745,1.299-1.298c0.048,0,0.072-0.145,0.072-0.433
		v-9.812c0-0.877-0.457-1.431-1.371-1.659V44.169z"/>
	<path fill="#C3002F" d="M413.522,44.313h3.914v9.884c0,1.359,0.655,2.038,1.966,2.038c1.491,0,2.646-0.812,3.464-2.435
		c0.096-0.42,0.144-0.866,0.144-1.334v-8.153h2.525V56.47c0.024,0.806,0.463,1.305,1.316,1.497v0.378h-3.842v-1.407
		c-1.166,1.046-2.524,1.569-4.076,1.569c-2.718,0-4.076-1.593-4.076-4.78v-7.612c0-0.637-0.445-1.136-1.335-1.497V44.313z"/>
	<path fill="#C3002F" d="M420.16,59.933h3.481v4.293h-2.327V61.34c0-0.349-0.385-0.764-1.154-1.245V59.933z"/>
	<path fill="#C3002F" d="M427.718,44.205h3.914v9.56c0,1.058,0.385,1.768,1.154,2.128c0.637,0.157,1.208,0.235,1.713,0.235
		c1.359,0,2.23-0.433,2.615-1.299l0.072-0.577v-2.85h-2.453v-2.381h2.453v-4.816h2.615v4.816h2.381l-0.991,2.381h-1.39v1.875
		c0,2.104-0.547,3.481-1.641,4.13c-0.927,0.674-2.093,1.01-3.499,1.01h-0.415c-2.537,0-4.197-1.01-4.979-3.03
		c-0.108-0.409-0.162-0.787-0.162-1.136v-7.918c0-0.854-0.463-1.479-1.389-1.876V44.205z"/>
	<path fill="#C3002F" d="M446.872,44.403h0.505c0.481,0,0.962,0.048,1.443,0.144v2.381l-0.505-0.145l-0.505-0.036
		c-1.396,0.024-2.099,0.445-2.11,1.263c-0.013,0.818,0.402,1.227,1.244,1.227h1.082c0.108,0,0.445,0.746,1.011,2.236
		c-0.602-0.048-0.914-0.072-0.938-0.072c-1.6,0.132-2.573,0.914-2.922,2.345v0.198c0.072,1.479,0.998,2.219,2.777,2.219h3.103
		V44.476h2.598v2.092v11.904h-5.771c-3.464,0-5.195-1.491-5.195-4.473c0-1.479,0.577-2.609,1.731-3.391
		c-1.01-0.781-1.515-1.575-1.515-2.381V47.65c0-1.443,0.89-2.477,2.669-3.103C446.055,44.452,446.487,44.403,446.872,44.403z"/>
	<path fill="#C3002F" d="M452.662,40.021h3.318l-1.227,2.092h-0.865c-0.674,0-1.011,0.265-1.011,0.793v0.433h-2.597v-0.578
		c0-1.455,0.529-2.338,1.587-2.651C452.085,40.063,452.35,40.032,452.662,40.021z"/>
</g>
<g>
	<path fill="#C3002F" d="M113.815,68.294h2.39v7.86h-1.58v-6.86c0-0.353-0.27-0.616-0.81-0.79V68.294z"/>
	<path fill="#C3002F" d="M116.746,68.305h2.35l3.02,5.2h0.04v-5.12v-0.08h1.51v7.89h-1.46l-3.15-5.46h-0.04v5.46h-1.47v-6.67
		c0.02-0.493-0.247-0.83-0.8-1.01V68.305z"/>
	<path fill="#C3002F" d="M126.895,68.365h0.25c0.96,0,1.736,0.217,2.33,0.65v1.43c-0.747-0.567-1.59-0.85-2.53-0.85
		c-0.74,0.086-1.11,0.316-1.11,0.69v0.04c0,0.387,0.437,0.7,1.31,0.94c1.827,0.64,2.74,1.5,2.74,2.58c0,1.16-0.56,1.91-1.68,2.25
		c-0.447,0.106-0.84,0.16-1.18,0.16c-0.88,0-1.7-0.34-2.46-1.02l-0.04-0.08v-1.64c0.84,0.954,1.687,1.43,2.54,1.43h0.16
		c0.546,0,0.93-0.217,1.15-0.65l0.04-0.29v-0.2c0-0.467-0.847-1-2.54-1.6c-1.007-0.506-1.51-1.146-1.51-1.92
		c0-0.867,0.574-1.48,1.72-1.84C126.358,68.391,126.628,68.365,126.895,68.365z"/>
	<path fill="#C3002F" d="M130.385,68.334h5.94v1.3h-2.18v6.56h-1.54v-6.56h-1.05c-0.493,0-0.827,0.263-1,0.79h-0.17V68.334z"/>
	<path fill="#C3002F" d="M137.045,68.294h2.39v7.86h-1.58v-6.86c0-0.353-0.27-0.616-0.81-0.79V68.294z"/>
	<path fill="#C3002F" d="M140.125,68.334h5.94v1.3h-2.18v6.56h-1.54v-6.56h-1.05c-0.493,0-0.827,0.263-1,0.79h-0.17V68.334z"/>
	<path fill="#C3002F" d="M146.575,68.435h2.32v5.01c0,0.66,0.193,1.12,0.58,1.38c0.293,0.126,0.597,0.19,0.91,0.19
		c0.773,0,1.226-0.36,1.36-1.08c0.026-0.24,0.04-0.446,0.04-0.62v-4.88h1.53v4.92c0,1.4-0.577,2.324-1.73,2.77
		c-0.347,0.113-0.706,0.17-1.08,0.17h-0.33c-1.54,0-2.463-0.76-2.77-2.28c-0.027-0.18-0.04-0.356-0.04-0.53v-3.85
		c0.02-0.514-0.244-0.843-0.79-0.99V68.435z"/>
	<path fill="#C3002F" d="M154.055,68.334h5.94v1.3h-2.181v6.56h-1.54v-6.56h-1.05c-0.493,0-0.826,0.263-1,0.79h-0.17V68.334z"/>
	<path fill="#C3002F" d="M160.835,68.334h6.04v1.34h-0.08h-3.61v1.77h2.601l0.09,0.01v1.33h-0.09h-2.601v2.1h3.78v1.34h-5.33v-6.67
		c0.02-0.566-0.247-0.903-0.8-1.01V68.334z"/>
	<path fill="#C3002F" d="M171.364,68.334h5.75v1.34h-3.479v1.77h2.56h0.08v1.34h-2.64v3.44h-1.551v-0.08v-6.84
		c0-0.307-0.267-0.573-0.8-0.8v-0.17H171.364z"/>
	<path fill="#C3002F" d="M181.135,68.205c1.68,0,2.727,0.91,3.14,2.73c0.054,0.414,0.08,0.757,0.08,1.03v0.5
		c0,1.787-0.673,2.97-2.02,3.55c-0.434,0.113-0.82,0.17-1.16,0.17h-0.12c-1.514,0-2.507-0.743-2.979-2.23
		c-0.114-0.327-0.197-0.907-0.25-1.74c0-2,0.703-3.28,2.109-3.84C180.461,68.261,180.861,68.205,181.135,68.205z M179.395,72.254
		c0,1.74,0.606,2.61,1.82,2.61c0.68,0,1.163-0.427,1.45-1.28c0.08-0.386,0.12-0.733,0.12-1.04v-0.74c0-1.027-0.317-1.73-0.95-2.11
		c-0.247-0.087-0.414-0.13-0.5-0.13h-0.37C179.918,69.564,179.395,70.461,179.395,72.254z"/>
	<path fill="#C3002F" d="M184.645,68.305h4.09c1.12,0,1.88,0.463,2.28,1.39c0.1,0.253,0.156,0.577,0.17,0.97
		c0,1-0.477,1.677-1.43,2.03l1.729,3.5h-1.78l-1.47-3.16h-1.229v3.16h-1.561v-6.96c0.026-0.36-0.24-0.613-0.8-0.76V68.305z
		 M187.005,69.575v2.15h1.18c0.934,0,1.4-0.296,1.4-0.89v-0.34c0-0.613-0.494-0.92-1.48-0.92H187.005z"/>
	<path fill="#C3002F" d="M198.664,68.314c1.247,0,2.106,0.554,2.58,1.66c0,0.073,0.04,0.227,0.12,0.46
		c-0.84,0.22-1.323,0.33-1.45,0.33v-0.04c-0.253-0.693-0.684-1.04-1.29-1.04h-0.21c-0.78,0-1.236,0.777-1.37,2.33v0.37
		c0,1.747,0.54,2.62,1.62,2.62c0.62,0,1.09-0.386,1.41-1.16c0.906,0.247,1.394,0.37,1.46,0.37c-0.479,1.413-1.424,2.12-2.83,2.12
		h-0.08c-1.486,0-2.47-0.763-2.95-2.29c-0.14-0.56-0.21-1.14-0.21-1.74c0-2.007,0.693-3.28,2.08-3.82
		C197.978,68.371,198.351,68.314,198.664,68.314z"/>
	<path fill="#C3002F" d="M205.334,68.205c1.68,0,2.727,0.91,3.14,2.73c0.054,0.414,0.08,0.757,0.08,1.03v0.5
		c0,1.787-0.673,2.97-2.02,3.55c-0.434,0.113-0.82,0.17-1.16,0.17h-0.12c-1.514,0-2.507-0.743-2.979-2.23
		c-0.114-0.327-0.197-0.907-0.25-1.74c0-2,0.703-3.28,2.109-3.84C204.66,68.261,205.061,68.205,205.334,68.205z M203.594,72.254
		c0,1.74,0.606,2.61,1.82,2.61c0.68,0,1.163-0.427,1.45-1.28c0.08-0.386,0.12-0.733,0.12-1.04v-0.74c0-1.027-0.317-1.73-0.95-2.11
		c-0.247-0.087-0.414-0.13-0.5-0.13h-0.37C204.117,69.564,203.594,70.461,203.594,72.254z"/>
	<path fill="#C3002F" d="M208.943,68.305h2.351l3.02,5.2h0.04v-5.12v-0.08h1.51v7.89h-1.46l-3.149-5.46h-0.04v5.46h-1.47v-6.67
		c0.02-0.493-0.247-0.83-0.801-1.01V68.305z"/>
	<path fill="#C3002F" d="M216.554,68.334h5.94v1.3h-2.181v6.56h-1.54v-6.56h-1.05c-0.493,0-0.826,0.263-1,0.79h-0.17V68.334z"/>
	<path fill="#C3002F" d="M223.214,68.294h2.39v7.86h-1.58v-6.86c0-0.353-0.27-0.616-0.81-0.79V68.294z"/>
	<path fill="#C3002F" d="M226.144,68.305h2.351l3.02,5.2h0.04v-5.12v-0.08h1.51v7.89h-1.46l-3.149-5.46h-0.04v5.46h-1.47v-6.67
		c0.02-0.493-0.247-0.83-0.801-1.01V68.305z"/>
	<path fill="#C3002F" d="M233.664,68.435h2.32v5.01c0,0.66,0.192,1.12,0.579,1.38c0.294,0.126,0.597,0.19,0.91,0.19
		c0.773,0,1.227-0.36,1.36-1.08c0.026-0.24,0.04-0.446,0.04-0.62v-4.88h1.53v4.92c0,1.4-0.577,2.324-1.73,2.77
		c-0.347,0.113-0.707,0.17-1.08,0.17h-0.33c-1.54,0-2.463-0.76-2.77-2.28c-0.027-0.18-0.04-0.356-0.04-0.53v-3.85
		c0.02-0.514-0.243-0.843-0.79-0.99V68.435z"/>
	<path fill="#C3002F" d="M241.264,68.294h2.39v7.86h-1.58v-6.86c0-0.353-0.27-0.616-0.81-0.79V68.294z"/>
	<path fill="#C3002F" d="M244.193,68.305h2.351l3.02,5.2h0.04v-5.12v-0.08h1.51v7.89h-1.46l-3.149-5.46h-0.04v5.46h-1.47v-6.67
		c0.02-0.493-0.247-0.83-0.801-1.01V68.305z"/>
	<path fill="#C3002F" d="M258.073,72.125v4h-1.149v-0.7c-0.526,0.52-1.146,0.78-1.86,0.78h-0.12c-1.166,0-2.02-0.523-2.56-1.57
		c-0.327-0.653-0.49-1.407-0.49-2.26c0-2.1,0.727-3.42,2.18-3.96c0.327-0.106,0.684-0.16,1.07-0.16c1.387,0,2.33,0.667,2.83,2
		l0.01,0.05l-1.479,0.38c-0.273-0.713-0.747-1.07-1.42-1.07l-0.11-0.01c-0.873,0.007-1.377,0.82-1.51,2.44v0.16
		c0,1.347,0.343,2.2,1.03,2.56c0.199,0.08,0.376,0.12,0.529,0.12c0.747,0,1.24-0.357,1.48-1.07c0.026-0.106,0.04-0.283,0.04-0.53
		v-0.23c-0.021-0.333-0.247-0.59-0.681-0.77v-0.16H258.073z"/>
	<path fill="#C3002F" d="M262.693,68.334h6.04v1.34h-0.08h-3.61v1.77h2.601l0.09,0.01v1.33h-0.09h-2.601v2.1h3.78v1.34h-5.33v-6.67
		c0.02-0.566-0.247-0.903-0.8-1.01V68.334z"/>
	<path fill="#C3002F" d="M269.463,68.365h2.721c1.767,0,2.883,0.403,3.35,1.21c0.526,0.64,0.79,1.546,0.79,2.72
		c0,2.18-0.877,3.463-2.63,3.85c-0.227,0.054-0.493,0.08-0.8,0.08h-2.721v-6.81c0-0.387-0.263-0.667-0.79-0.84v-0.21H269.463z
		 M271.764,69.745v5.14h0.8c1.04,0,1.693-0.377,1.96-1.13c0.14-0.413,0.21-0.886,0.21-1.42v-0.08c0-1.673-0.627-2.51-1.88-2.51
		H271.764z"/>
	<path fill="#C3002F" d="M276.733,68.435h2.32v5.01c0,0.66,0.192,1.12,0.579,1.38c0.294,0.126,0.597,0.19,0.91,0.19
		c0.773,0,1.227-0.36,1.36-1.08c0.026-0.24,0.04-0.446,0.04-0.62v-4.88h1.53v4.92c0,1.4-0.577,2.324-1.73,2.77
		c-0.347,0.113-0.707,0.17-1.08,0.17h-0.33c-1.54,0-2.463-0.76-2.77-2.28c-0.027-0.18-0.04-0.356-0.04-0.53v-3.85
		c0.02-0.514-0.243-0.843-0.79-0.99V68.435z"/>
	<path fill="#C3002F" d="M287.303,68.314c1.247,0,2.106,0.554,2.58,1.66c0,0.073,0.04,0.227,0.12,0.46
		c-0.84,0.22-1.323,0.33-1.45,0.33v-0.04c-0.253-0.693-0.684-1.04-1.29-1.04h-0.21c-0.78,0-1.236,0.777-1.37,2.33v0.37
		c0,1.747,0.54,2.62,1.62,2.62c0.62,0,1.09-0.386,1.41-1.16c0.906,0.247,1.394,0.37,1.46,0.37c-0.479,1.413-1.424,2.12-2.83,2.12
		h-0.08c-1.486,0-2.47-0.763-2.95-2.29c-0.14-0.56-0.21-1.14-0.21-1.74c0-2.007,0.693-3.28,2.08-3.82
		C286.616,68.371,286.989,68.314,287.303,68.314z"/>
	<path fill="#C3002F" d="M291.703,68.325h2.97l2.21,7.86h-1.54l-0.42-1.67h-2.42l-0.42,1.67h-1.551l1.971-6.94
		c-0.067-0.34-0.334-0.577-0.8-0.71V68.325z M293.713,69.995l-0.84,3.22h1.72l-0.84-3.22H293.713z"/>
	<path fill="#C3002F" d="M297.463,68.334h5.94v1.3h-2.181v6.56h-1.54v-6.56h-1.05c-0.493,0-0.826,0.263-1,0.79h-0.17V68.334z"/>
	<path fill="#C3002F" d="M304.123,68.294h2.39v7.86h-1.58v-6.86c0-0.353-0.27-0.616-0.81-0.79V68.294z"/>
	<path fill="#C3002F" d="M310.663,68.205c1.68,0,2.727,0.91,3.14,2.73c0.054,0.414,0.08,0.757,0.08,1.03v0.5
		c0,1.787-0.673,2.97-2.02,3.55c-0.434,0.113-0.82,0.17-1.16,0.17h-0.12c-1.514,0-2.507-0.743-2.979-2.23
		c-0.114-0.327-0.197-0.907-0.25-1.74c0-2,0.703-3.28,2.109-3.84C309.989,68.261,310.39,68.205,310.663,68.205z M308.923,72.254
		c0,1.74,0.606,2.61,1.82,2.61c0.68,0,1.163-0.427,1.45-1.28c0.08-0.386,0.12-0.733,0.12-1.04v-0.74c0-1.027-0.317-1.73-0.95-2.11
		c-0.247-0.087-0.414-0.13-0.5-0.13h-0.37C309.446,69.564,308.923,70.461,308.923,72.254z"/>
	<path fill="#C3002F" d="M314.272,68.305h2.351l3.02,5.2h0.04v-5.12v-0.08h1.51v7.89h-1.46l-3.149-5.46h-0.04v5.46h-1.47v-6.67
		c0.02-0.493-0.247-0.83-0.801-1.01V68.305z"/>
	<path fill="#C3002F" d="M326.673,68.325h2.97l2.21,7.86h-1.54l-0.42-1.67h-2.42l-0.42,1.67h-1.551l1.971-6.94
		c-0.067-0.34-0.334-0.577-0.8-0.71V68.325z M328.683,69.995l-0.84,3.22h1.72l-0.84-3.22H328.683z"/>
	<path fill="#C3002F" d="M332.282,68.305h2.351l3.02,5.2h0.04v-5.12v-0.08h1.51v7.89h-1.46l-3.149-5.46h-0.04v5.46h-1.47v-6.67
		c0.02-0.493-0.247-0.83-0.801-1.01V68.305z"/>
	<path fill="#C3002F" d="M339.822,68.365h2.721c1.767,0,2.883,0.403,3.35,1.21c0.526,0.64,0.79,1.546,0.79,2.72
		c0,2.18-0.877,3.463-2.63,3.85c-0.227,0.054-0.493,0.08-0.8,0.08h-2.721v-6.81c0-0.387-0.263-0.667-0.79-0.84v-0.21H339.822z
		 M342.123,69.745v5.14h0.8c1.04,0,1.693-0.377,1.96-1.13c0.14-0.413,0.21-0.886,0.21-1.42v-0.08c0-1.673-0.627-2.51-1.88-2.51
		H342.123z"/>
	<path fill="#C3002F" d="M350.792,68.305h2.351v3.11h2.939v-3.11h1.55v7.89h-1.55v-3.36h-2.939v3.36h-1.591v-0.08v-6.89
		c0-0.273-0.253-0.51-0.76-0.71V68.305z"/>
	<path fill="#C3002F" d="M358.252,68.435h2.32v5.01c0,0.66,0.192,1.12,0.579,1.38c0.294,0.126,0.597,0.19,0.91,0.19
		c0.773,0,1.227-0.36,1.36-1.08c0.026-0.24,0.04-0.446,0.04-0.62v-4.88h1.53v4.92c0,1.4-0.577,2.324-1.73,2.77
		c-0.347,0.113-0.707,0.17-1.08,0.17h-0.33c-1.54,0-2.463-0.76-2.77-2.28c-0.027-0.18-0.04-0.356-0.04-0.53v-3.85
		c0.02-0.514-0.243-0.843-0.79-0.99V68.435z"/>
	<path fill="#C3002F" d="M365.603,68.334h2.979l1.471,5.33h0.04l1.47-5.33h2.18v7.81v0.08h-1.38v-0.08v-5.84h-0.05l-1.72,5.92h-1.04
		l-1.101-3.69c-0.166-0.453-0.376-1.197-0.63-2.23h-0.04v5.84v0.08h-1.38v-0.08v-6.8c0-0.36-0.267-0.64-0.8-0.84V68.334z"/>
	<path fill="#C3002F" d="M375.742,68.325h2.97l2.21,7.86h-1.54l-0.42-1.67h-2.42l-0.42,1.67h-1.551l1.971-6.94
		c-0.067-0.34-0.334-0.577-0.8-0.71V68.325z M377.752,69.995l-0.84,3.22h1.72l-0.84-3.22H377.752z"/>
	<path fill="#C3002F" d="M381.352,68.305h2.351l3.02,5.2h0.04v-5.12v-0.08h1.51v7.89h-1.46l-3.149-5.46h-0.04v5.46h-1.47v-6.67
		c0.02-0.493-0.247-0.83-0.801-1.01V68.305z"/>
	<path fill="#C3002F" d="M392.312,68.305h4.09c1.12,0,1.88,0.463,2.28,1.39c0.1,0.253,0.156,0.577,0.17,0.97
		c0,1-0.477,1.677-1.43,2.03l1.729,3.5h-1.78l-1.47-3.16h-1.229v3.16h-1.561v-6.96c0.026-0.36-0.24-0.613-0.8-0.76V68.305z
		 M394.672,69.575v2.15h1.18c0.934,0,1.4-0.296,1.4-0.89v-0.34c0-0.613-0.494-0.92-1.48-0.92H394.672z"/>
	<path fill="#C3002F" d="M399.882,68.334h6.04v1.34h-0.08h-3.61v1.77h2.601l0.09,0.01v1.33h-0.09h-2.601v2.1h3.78v1.34h-5.33v-6.67
		c0.02-0.566-0.247-0.903-0.8-1.01V68.334z"/>
	<path fill="#C3002F" d="M409.262,68.365h0.25c0.96,0,1.736,0.217,2.33,0.65v1.43c-0.747-0.567-1.59-0.85-2.53-0.85
		c-0.74,0.086-1.109,0.316-1.109,0.69v0.04c0,0.387,0.437,0.7,1.31,0.94c1.826,0.64,2.74,1.5,2.74,2.58
		c0,1.16-0.561,1.91-1.681,2.25c-0.446,0.106-0.84,0.16-1.18,0.16c-0.88,0-1.7-0.34-2.46-1.02l-0.04-0.08v-1.64
		c0.84,0.954,1.687,1.43,2.54,1.43h0.16c0.547,0,0.93-0.217,1.149-0.65l0.04-0.29v-0.2c0-0.467-0.847-1-2.54-1.6
		c-1.006-0.506-1.51-1.146-1.51-1.92c0-0.867,0.573-1.48,1.721-1.84C408.725,68.391,408.995,68.365,409.262,68.365z"/>
	<path fill="#C3002F" d="M416.211,68.205c1.68,0,2.727,0.91,3.14,2.73c0.054,0.414,0.08,0.757,0.08,1.03v0.5
		c0,1.787-0.673,2.97-2.02,3.55c-0.434,0.113-0.82,0.17-1.16,0.17h-0.12c-1.514,0-2.507-0.743-2.979-2.23
		c-0.114-0.327-0.197-0.907-0.25-1.74c0-2,0.703-3.28,2.109-3.84C415.537,68.261,415.938,68.205,416.211,68.205z M414.471,72.254
		c0,1.74,0.606,2.61,1.82,2.61c0.68,0,1.163-0.427,1.45-1.28c0.08-0.386,0.12-0.733,0.12-1.04v-0.74c0-1.027-0.317-1.73-0.95-2.11
		c-0.247-0.087-0.414-0.13-0.5-0.13h-0.37C414.994,69.564,414.471,70.461,414.471,72.254z"/>
	<path fill="#C3002F" d="M419.882,68.435h2.32v5.01c0,0.66,0.192,1.12,0.579,1.38c0.294,0.126,0.597,0.19,0.91,0.19
		c0.773,0,1.227-0.36,1.36-1.08c0.026-0.24,0.04-0.446,0.04-0.62v-4.88h1.53v4.92c0,1.4-0.577,2.324-1.73,2.77
		c-0.347,0.113-0.707,0.17-1.08,0.17h-0.33c-1.54,0-2.463-0.76-2.77-2.28c-0.027-0.18-0.04-0.356-0.04-0.53v-3.85
		c0.02-0.514-0.243-0.843-0.79-0.99V68.435z"/>
	<path fill="#C3002F" d="M427.111,68.305h4.09c1.12,0,1.88,0.463,2.28,1.39c0.1,0.253,0.156,0.577,0.17,0.97
		c0,1-0.477,1.677-1.43,2.03l1.729,3.5h-1.78l-1.47-3.16h-1.229v3.16h-1.561v-6.96c0.026-0.36-0.24-0.613-0.8-0.76V68.305z
		 M429.472,69.575v2.15h1.18c0.934,0,1.4-0.296,1.4-0.89v-0.34c0-0.613-0.494-0.92-1.48-0.92H429.472z"/>
	<path fill="#C3002F" d="M437.531,68.314c1.247,0,2.106,0.554,2.58,1.66c0,0.073,0.04,0.227,0.12,0.46
		c-0.84,0.22-1.323,0.33-1.45,0.33v-0.04c-0.253-0.693-0.684-1.04-1.29-1.04h-0.21c-0.78,0-1.236,0.777-1.37,2.33v0.37
		c0,1.747,0.54,2.62,1.62,2.62c0.62,0,1.09-0.386,1.41-1.16c0.906,0.247,1.394,0.37,1.46,0.37c-0.479,1.413-1.424,2.12-2.83,2.12
		h-0.08c-1.486,0-2.47-0.763-2.95-2.29c-0.14-0.56-0.21-1.14-0.21-1.74c0-2.007,0.693-3.28,2.08-3.82
		C436.845,68.371,437.218,68.314,437.531,68.314z"/>
	<path fill="#C3002F" d="M440.981,68.334h6.04v1.34h-0.08h-3.61v1.77h2.601l0.09,0.01v1.33h-0.09h-2.601v2.1h3.78v1.34h-5.33v-6.67
		c0.02-0.566-0.247-0.903-0.8-1.01V68.334z"/>
	<path fill="#C3002F" d="M450.361,68.365h0.25c0.96,0,1.736,0.217,2.33,0.65v1.43c-0.747-0.567-1.59-0.85-2.53-0.85
		c-0.74,0.086-1.109,0.316-1.109,0.69v0.04c0,0.387,0.437,0.7,1.31,0.94c1.826,0.64,2.74,1.5,2.74,2.58
		c0,1.16-0.561,1.91-1.681,2.25c-0.446,0.106-0.84,0.16-1.18,0.16c-0.88,0-1.7-0.34-2.46-1.02l-0.04-0.08v-1.64
		c0.84,0.954,1.687,1.43,2.54,1.43h0.16c0.547,0,0.93-0.217,1.149-0.65l0.04-0.29v-0.2c0-0.467-0.847-1-2.54-1.6
		c-1.006-0.506-1.51-1.146-1.51-1.92c0-0.867,0.573-1.48,1.721-1.84C449.824,68.391,450.095,68.365,450.361,68.365z"/>
</g>
</svg>
